<svg width="42" height="40" viewBox="0 0 42 40" xmlns="http://www.w3.org/2000/svg"><title>germany</title><g fill="none" fill-rule="evenodd"><path d="M40.755 26.415H1.509C4.366 34.33 12.073 40 21.132 40c9.06 0 16.766-5.67 19.623-13.585z" fill="#F2C500"/><path d="M1.181 26.415h39.147a20.012 20.012 0 0 0 1.181-6.792c0-2.382-.416-4.668-1.18-6.793H1.18A20.012 20.012 0 0 0 0 19.623c0 2.381.416 4.668 1.181 6.792z" fill="#E94B35"/><path d="M1.51 13.585h39.245C37.898 5.67 30.19 0 21.132 0 12.072 0 4.366 5.67 1.51 13.585z" fill="#000"/></g></svg>