<svg width="93" height="50" viewBox="0 0 93 50" xmlns="http://www.w3.org/2000/svg"><title>Logo@2x</title><g fill="none" fill-rule="evenodd"><path fill="#FF137D" d="M27.337 0H93L64.663 50H0z"/><path d="M33.417 38l4.447-25.594 7.98.018c2.965.012 5.192.615 6.68 1.81 1.488 1.196 2.162 2.877 2.022 5.045-.164 2.59-1.659 4.483-4.483 5.678 1.02.352 1.81 1.01 2.373 1.978.563.966.803 2.106.721 3.419-.164 2.414-1.11 4.292-2.839 5.633C48.59 37.33 46.231 38 43.243 38h-9.826zm7.101-11.145l-1.213 6.909 4.06.017c1.267 0 2.327-.313 3.183-.94.855-.627 1.365-1.474 1.529-2.54.164-1.055.02-1.878-.43-2.47-.452-.592-1.21-.911-2.277-.958l-4.852-.018zm.633-3.726l3.498.035c1.3-.023 2.364-.328 3.19-.914.827-.586 1.322-1.4 1.486-2.443.293-2.063-.791-3.1-3.252-3.112l-3.797-.017-1.125 6.45z" fill="#FFF"/></g></svg>