<svg width="40" height="40" viewBox="0 0 40 40" xmlns="http://www.w3.org/2000/svg"><title>spain</title><g fill="none" fill-rule="evenodd"><path d="M37.324 30A19.908 19.908 0 0 0 40 20c0-3.643-.974-7.058-2.676-10H2.676A19.908 19.908 0 0 0 0 20c0 3.643.974 7.058 2.676 10h34.648z" fill="#F2C500"/><path d="M37 30c-3.393 5.978-9.736 10-17 10-7.264 0-13.607-4.022-17-10h34zm0-20C33.607 4.022 27.264 0 20 0 12.736 0 6.393 4.022 3 10h34z" fill="#E94B35"/><path d="M8.614 27.83a2.33 2.33 0 0 1-1.288-2.083v-8.843h9.676v8.843a2.33 2.33 0 0 1-1.288 2.084c-1.05.524-2.28.84-3.54.84-1.26 0-2.51-.316-3.56-.84z" fill="#FFF"/><path d="M15.141 18.354c.007.066-.02.124-.01.16.01.037.015.066.03.093.012.026.02.094.02.094s-.038-.027-.072-.054a1.126 1.126 0 0 0-.058-.044l.01.103a.27.27 0 0 0 .049.124c.028.034.083.089.1.133.018.045.015.144.015.144s-.045-.075-.084-.089c-.038-.013-.122-.062-.122-.062s.077.08.077.155-.031.16-.031.16-.035-.068-.08-.112c-.045-.045-.108-.09-.108-.09s.049.117.049.196-.014.247-.014.247-.038-.065-.076-.097c-.039-.03-.084-.058-.098-.078-.013-.02.046.065.052.116.007.052.03.235.185.47.09.137.229.376.528.298.299-.079.188-.497.125-.693a1.817 1.817 0 0 1-.09-.486c.003-.075.055-.298.048-.34a.864.864 0 0 1 .014-.328c.038-.133.07-.185.09-.24.021-.055.038-.086.045-.134.007-.048.007-.137.007-.137s.056.106.07.144c.013.038.013.15.013.15s.01-.112.094-.167c.084-.055.181-.113.206-.144.024-.031.031-.051.031-.051s-.007.192-.059.267c-.035.05-.17.21-.17.21s.07-.029.118-.031a.477.477 0 0 1 .083 0s-.06.048-.135.164c-.077.116-.046.127-.101.222-.056.096-.101.1-.17.158-.105.087-.049.435-.035.486.014.051.194.477.198.58.003.103.02.332-.153.48-.112.095-.296.096-.337.123-.042.027-.125.113-.125.29 0 .18.062.207.11.251.05.045.112.02.126.055.014.034.02.055.042.076.02.02.035.044.027.081-.006.038-.086.124-.114.186a1.524 1.524 0 0 0-.084.246c0 .025-.006.1.018.138 0 0 .086.105.027.126-.038.014-.075-.025-.093-.02-.052.014-.08.047-.094.044-.035-.007-.035-.024-.039-.075-.003-.051-.001-.072-.016-.072-.021 0-.032.018-.035.045-.004.027-.004.088-.028.088-.025 0-.06-.044-.08-.054-.021-.01-.08-.02-.083-.048-.004-.027.034-.086.072-.096.039-.01.073-.03.049-.051-.024-.02-.049-.02-.073 0-.024.02-.076.003-.073-.028.004-.03.01-.068.007-.085s-.045-.051.01-.083c.056-.03.08.028.136.018.055-.01.083-.032.104-.065.02-.034.017-.107-.02-.15-.04-.046-.077-.053-.091-.08a.858.858 0 0 1-.035-.092s.01.12.003.137c-.006.017-.003.088-.003.088s-.038-.044-.07-.078c-.03-.034-.062-.137-.062-.137l-.003.134c0 .037.041.071.028.085-.014.014-.08-.072-.098-.085a.374.374 0 0 1-.097-.107c-.024-.048-.042-.116-.049-.14-.007-.024-.018-.131-.007-.158.018-.04.045-.113.045-.113h-.135c-.073 0-.125-.024-.153.027-.028.052-.014.155.02.288.036.133.056.199.046.223a.31.31 0 0 1-.073.089c-.017.01-.066.007-.087-.003a.242.242 0 0 0-.121-.028c-.066 0-.108.003-.132-.003-.025-.007-.084-.038-.112-.03-.028.006-.076.032-.063.071.022.062-.02.076-.048.072-.028-.003-.052-.013-.087-.023-.034-.011-.087 0-.08-.042.007-.041.021-.044.038-.075.018-.031.024-.051.005-.053-.025-.003-.049-.005-.068.01-.018.017-.048.051-.073.038-.025-.013-.043-.043-.043-.107s-.066-.12-.006-.118c.06.003.136.049.15.014.013-.035.005-.05-.028-.078-.032-.027-.073-.043-.03-.078.044-.034.055-.034.071-.053.017-.019.04-.08.07-.064.06.03.003.072.063.141.06.07.098.095.198.083.1-.01.128-.024.128-.053 0-.03-.008-.083-.011-.105-.003-.02.013-.099.013-.099s-.046.03-.06.06c-.012.029-.04.08-.04.08s-.01-.06-.008-.11c.002-.029.012-.079.01-.089a.854.854 0 0 0-.02-.093s-.017.072-.028.093c-.01.022-.016.108-.016.108s-.064-.058-.046-.155c.013-.076-.011-.175.01-.207.022-.032.073-.163.198-.169.125-.005.223.006.267.003.043-.003.198-.032.198-.032s-.285-.152-.35-.198a.976.976 0 0 1-.199-.217.885.885 0 0 1-.062-.158s-.051.003-.098.03a.495.495 0 0 0-.12.098c-.027.033-.07.105-.07.105s.008-.094.008-.123c0-.029-.005-.086-.005-.086s-.033.128-.098.176a2.744 2.744 0 0 0-.141.116s.008-.072.008-.088.017-.1.017-.1-.047.072-.117.087c-.07.013-.174.01-.183.056-.007.045.02.107.003.139a.155.155 0 0 1-.051.053s-.04-.035-.076-.037c-.036-.003-.068.016-.068.016s-.03-.04-.02-.067c.012-.027.066-.067.052-.083-.013-.016-.057.005-.084.019-.027.013-.084.026-.079-.02.006-.045.02-.071.006-.104-.014-.031-.006-.053.016-.061s.109.002.117-.018c.008-.022-.022-.049-.079-.062-.057-.013-.084-.048-.054-.078.03-.03.038-.037.051-.064.014-.027.02-.075.071-.051.051.024.04.083.095.102a.392.392 0 0 0 .209-.024c.027-.017.114-.083.144-.1a2.4 2.4 0 0 0 .155-.112s-.074-.053-.1-.08c-.028-.027-.077-.09-.1-.104a.816.816 0 0 0-.186-.064c-.04-.003-.165-.048-.165-.048s.057-.02.076-.036c.019-.016.062-.056.084-.053a.263.263 0 0 0 .027.003s-.117-.006-.141-.014c-.025-.008-.095-.053-.122-.053a.577.577 0 0 0-.082.01s.073-.048.133-.058c.06-.01.106-.009.106-.009s-.092-.026-.114-.058c-.022-.033-.043-.08-.06-.102-.016-.021-.027-.056-.057-.059-.03-.003-.081.038-.111.035-.03-.002-.052-.022-.055-.067-.002-.045 0-.03-.01-.053-.01-.025-.054-.081-.014-.094.041-.014.128.008.136-.008.008-.016-.046-.065-.081-.083-.035-.019-.092-.051-.063-.078.03-.026.06-.037.076-.061.017-.024.036-.091.071-.07.035.021.084.126.111.118.028-.008.03-.083.025-.115-.006-.032 0-.088.027-.083.027.005.049.043.092.046.043.002.109-.01.103.02a.255.255 0 0 1-.06.108.166.166 0 0 0-.024.15.392.392 0 0 0 .112.147c.043.03.124.051.176.085.052.036.171.134.212.145.04.01.081.032.081.032s.046-.021.11-.021c.061 0 .205.01.26-.014.054-.024.125-.064.103-.115-.022-.05-.141-.096-.13-.136.01-.04.054-.043.127-.046.073-.002.174.014.192-.094.02-.106.025-.168-.078-.192-.103-.024-.18-.027-.198-.104-.02-.078-.038-.097-.016-.118.022-.021.06-.032.135-.037.076-.006.163-.006.188-.025.024-.018.03-.07.06-.091.029-.021.146-.04.146-.04s.14.07.27.17c.115.091.22.224.22.224 0-.001 0 .07.007.14z" fill="#9C56B8"/><path d="M14.947 17.78l-.03.002a.14.14 0 0 1-.026.032c-.026.022-.066.024-.088.006a.04.04 0 0 1-.014-.036.06.06 0 0 1-.053-.001c-.026-.013-.033-.045-.014-.071.004-.005.007-.012.011-.016l-.002-.029-.035.008-.01.017c-.023.022-.056.027-.072.014a.049.049 0 0 1-.014-.023s-.008.008-.018.01c-.054.011-.076-.094-.078-.121l-.018.022s.017.063.008.116c-.008.053-.03.107-.03.107.077.017.192.07.305.147a.899.899 0 0 1 .24.216s.059-.029.12-.046c.062-.017.14-.018.14-.018l.022-.019c-.033.004-.162.01-.16-.038.001-.008.008-.016.009-.016a.08.08 0 0 1-.031-.006c-.019-.01-.018-.038.002-.061l.018-.011.002-.03-.035.003a.067.067 0 0 1-.016.012c-.027.021-.066.023-.088.003a.036.036 0 0 1-.011-.041.066.066 0 0 1-.046-.004c-.027-.014-.032-.047-.011-.072a.147.147 0 0 1 .031-.029l-.007-.026z" fill="#F2C500"/><path d="M12.211 28.288s-.415-.209-.506-.227c-.227-.044-.483-.008-.593-.013.003.003.132.089.19.142.056.053.245.158.352.183.229.054.557 0 .557 0l-.038.28.117-.055v-.278c.194-.13.62.147 1.198-.231-.853-.158-1.097.181-1.213.2l-.006-.125h-.077l.02.124z" fill="#058E6E"/><path d="M12.467 27.375c.207.06.313.211.313.387 0 .23-.229.403-.525.403-.297 0-.537-.174-.537-.403 0-.173.099-.367.305-.38 0 0-.007-.019-.024-.049l-.064-.063s.079-.015.124.002c.046.017.076.045.076.045s.022-.041.052-.073a.293.293 0 0 1 .07-.051s.045.037.06.062a.328.328 0 0 1 .025.056s.042-.034.078-.047c.036-.014.083-.025.083-.025s-.013.044-.022.066a.352.352 0 0 0-.014.07" fill="#F6CB7E"/><path stroke="#262626" stroke-width=".1" fill="#CA4638" d="M7.326 22.495h4.838v-5.591H7.326z"/><path d="M9.75 28.184c-1.338 0-2.424-1.066-2.424-2.38v-8.9h4.838v5.523h4.844v3.377s0 2.38-2.398 2.38-2.446-2.38-2.446-2.38c0 1.314-1.075 2.38-2.413 2.38z" fill="#E94B35"/><path d="M10.634 18.742v1.463l.39.001v.784l-2.832.005v-.784l.402-.002v-1.463h-.186v-.724l.31-.002.093.064.004.351.262.001-.002-.362.08-.056h.268l.091.072v.347l.27.001.005-.344.069-.075h.266l.081.07.01.337.248.001-.004-.333.085-.076h.342v.723h-.252zm-1.793.551h.354v-.405c0-.11-.065-.203-.177-.203-.113 0-.177.092-.177.203v.405zm1.196.002h.354v-.405c0-.11-.064-.203-.177-.203-.113 0-.177.092-.177.203v.405zm-.012 1.357v-.483c0-.092-.04-.368-.423-.368-.362 0-.403.276-.403.368v.483h.826zm3.061 4.238a.118.118 0 0 1-.107.172.118.118 0 0 1-.12-.117c0-.02.004-.037.012-.053l-.168-.002a.275.275 0 0 0 .19.316v.424l.176.002v-.428a.278.278 0 0 0 .175-.17h.473v-.144h-.631zm2.32 0v.143l-.425.001a.284.284 0 0 1-.028.054l.494.578-.132.11-.492-.578-.023.009-.001.956h-.174v-.96c-.008-.002-.014-.006-.021-.01l-.512.583-.133-.11.512-.585a.238.238 0 0 1-.021-.048h-.44v-.143h1.396zm.283 0v.143h.473c.029.08.092.144.175.171v.428l.176-.002v-.424a.275.275 0 0 0 .19-.316h-.168a.132.132 0 0 1 .012.055.118.118 0 0 1-.12.117.118.118 0 0 1-.12-.117c0-.02.005-.037.014-.053l-.632-.002zm-.715 2.437c.138-.022.265-.062.391-.116l.086.151c-.144.064-.3.11-.462.135a.279.279 0 0 1-.274.217.28.28 0 0 1-.274-.215 1.83 1.83 0 0 1-.486-.137l.086-.15c.132.056.273.095.42.116a.27.27 0 0 1 .162-.147l.001-.742h.174l.001.739a.281.281 0 0 1 .175.149zm-1.18-.249l-.086.153a1.797 1.797 0 0 1-.39-.34.286.286 0 0 1-.267-.053.269.269 0 0 1-.031-.386l.014-.016a1.722 1.722 0 0 1-.135-.53l.175.001c.014.16.053.31.113.453a.303.303 0 0 1 .15.016l.439-.5.132.11-.437.5a.265.265 0 0 1-.01.302c.097.11.208.209.332.29zm-.652-.525a.122.122 0 0 1 .17-.013c.05.042.056.117.013.165a.122.122 0 0 1-.17.014.115.115 0 0 1-.013-.166zm-.222-.495l-.18-.041-.026-.471.18-.061v.27c0 .104.008.204.026.303zm.15-.584l.18.044s.01.302.005.234c-.004-.079.02.237.02.237l-.182.062a1.597 1.597 0 0 1-.024-.296v-.28h.001zm.593 1.507c.152.122.328.22.518.283l.04-.179a1.45 1.45 0 0 1-.429-.221l-.129.117zm-.087.155c.154.119.33.214.518.28l-.135.13a1.982 1.982 0 0 1-.423-.223l.04-.187zm.235-1.038l.172.075.314-.36-.103-.152-.383.437zm-.133-.111l-.103-.154.314-.359.171.076-.382.437zm1.935 1.091l.086.153c.146-.094.277-.21.39-.34.089.027.19.01.266-.053a.27.27 0 0 0 .032-.386l-.015-.016c.071-.166.12-.343.135-.53l-.175.001c-.014.16-.053.31-.112.453a.304.304 0 0 0-.15.016l-.44-.5-.132.11.436.5a.266.266 0 0 0 .011.302c-.097.11-.208.209-.332.29zm.651-.525a.122.122 0 0 0-.169-.013.115.115 0 0 0-.013.165c.043.05.119.056.17.014a.115.115 0 0 0 .012-.166zm.222-.495l.18-.041.026-.471-.179-.061v.27c0 .104-.01.204-.027.303zm-.15-.584l-.18.044s-.01.302-.005.234c.005-.079-.02.237-.02.237l.181.062c.019-.096.025-.195.025-.296v-.28zm-.593 1.507c-.152.122-.328.22-.518.283l-.04-.179c.156-.05.301-.125.429-.221l.129.117zm.087.155a1.85 1.85 0 0 1-.518.28l.135.13c.15-.057.293-.133.423-.223l-.04-.187zm-.235-1.038l-.171.075-.315-.36.103-.152.383.437zm.134-.111l.103-.154-.315-.359-.171.076.383.437zm-2.152-.953l.052.176h.485l.052-.176h-.59zm2.262 0l-.053.176h-.484l-.052-.176h.589zm-1.244 2.406c0-.065.054-.118.12-.118s.12.053.12.118a.118.118 0 0 1-.12.117.118.118 0 0 1-.12-.117zm.204-.854l.18-.053v-.471l-.18-.051v.575zm-.176 0l-.18-.053v-.471l.18-.051v.575z" fill="#F2C500"/><path d="M12.703 24.894a.28.28 0 0 1 .192-.208l-.002-.582h.175v.585a.274.274 0 0 1 .179.178h.47v.027h-.631a.123.123 0 0 0-.108-.063.121.121 0 0 0-.107.065l-.168-.002zm1.307 0v-.027h.436a.265.265 0 0 1 .019-.042l-.539-.618.133-.11.532.607a.247.247 0 0 1 .028-.012v-.81h.175v.805l.027.007.52-.609.133.11-.522.605c.014.02.023.043.03.067h.424v.027h-1.397zm2.31 0a.123.123 0 0 1 .215.002l.167-.002a.28.28 0 0 0-.19-.208v-.582h-.174v.585a.274.274 0 0 0-.179.178h-.47v.027h.632zm-3.224-1.644l.648.748.132-.111-.651-.745a.281.281 0 0 0 .03-.065h.474v-.17h-.474a.28.28 0 0 0-.268-.19.278.278 0 0 0-.281.275c0 .12.079.222.189.26l-.001.576h.174v-.573c.007-.002.02-.002.028-.005zm3.418.004l-.001.574h-.175v-.577a.258.258 0 0 1-.038-.016l-.645.749-.133-.11.657-.763a.175.175 0 0 1-.015-.034h-.477v-.17h.475a.28.28 0 0 1 .267-.19.274.274 0 1 1 .086.536zm-1.718-.003l-.002.354h-.174v-.35a.279.279 0 0 1-.183-.178h-.425v-.17h.425a.279.279 0 0 1 .266-.19.28.28 0 0 1 .267.19h.434v.17h-.435a.274.274 0 0 1-.173.174zm-1.9.43l-.181.052v.473l.18.051v-.576zm.175 0l.18.052v.473l-.18.051v-.576zm3.266 0l-.18.052v.473l.18.051v-.576zm.175 0l.181.052v.473l-.18.051v-.576zm-2.734.093l.172-.075.314.36-.103.153-.383-.438zm-.133.112l-.103.154.314.359.172-.076-.383-.437zm1.974-.126l-.172-.074-.312.363.105.152.379-.44zm.134.11l.104.153-.31.363-.173-.074.379-.441zm-2.176.997l.052-.176h.485l.052.176h-.59zm-.71-1.875c0-.065.053-.117.12-.117.066 0 .12.052.12.117a.118.118 0 0 1-.12.117.119.119 0 0 1-.12-.117zm1.295.085l-.053.177h-.484l-.053-.177h.59zm0-.17l-.053-.177h-.484l-.053.176h.59zm1.677 1.96l-.053-.176h-.484l-.052.176h.589zm.47-1.875c0-.065.053-.117.12-.117.066 0 .12.052.12.117a.118.118 0 0 1-.12.117.118.118 0 0 1-.12-.117zm-1.726 0c0-.065.054-.117.12-.117s.12.052.12.117a.118.118 0 0 1-.12.117.119.119 0 0 1-.12-.117zm.67.085l.054.177h.484l.052-.177h-.59zm0-.17l.054-.177h.484l.052.176h-.59zm-.631.551l-.18.053v.472l.18.052v-.577zm.173 0l.18.053v.472l-.18.052v-.577z" fill="#F2C500"/><path d="M14.434 24.948c0-.152.126-.275.281-.275.155 0 .28.123.28.275a.277.277 0 0 1-.28.273.278.278 0 0 1-.281-.273" fill="#058E6E"/><path d="M8.343 27.746v-5.32h.576l.014 5.592c-.225-.054-.436-.19-.59-.272zm1.672.422c-.187.019-.36.024-.59 0v-5.741h.59v5.741zm.491-.15l.015-5.591h.575v5.333a1.93 1.93 0 0 1-.59.258zm1.097-.73l-.015-4.861h.59l-.015 3.6c-.084.558-.315 1.047-.56 1.262zm-3.707 0c-.246-.214-.477-.703-.56-1.26l-.016-3.601h.59l-.014 4.862z" fill="#C7A200"/><path d="M12.105 20.69c.847 0 1.534.816 1.534 1.823 0 1.007-.687 1.823-1.534 1.823s-1.534-.816-1.534-1.823c0-1.007.687-1.823 1.534-1.823z" fill="#E94B35"/><path d="M12.125 21.135c.619 0 1.12.598 1.12 1.337 0 .738-.501 1.337-1.12 1.337-.62 0-1.121-.599-1.121-1.337 0-.739.501-1.337 1.12-1.337z" fill="#346DA6"/><path d="M11.638 21.58s.132.158.132.304c0 .147-.055.269-.055.269.02-.058.073-.1.135-.1.08 0 .143.067.143.15a.231.231 0 0 1-.023.082l-.047.105a.098.098 0 0 0-.094-.06.104.104 0 0 0-.101.107c0 .01 0 .018.002.026h.117v.11h-.104l.077.17-.102-.044-.08.097-.078-.097-.102.045.077-.17h-.104v-.11h.117a.107.107 0 0 0 .003-.027.105.105 0 0 0-.102-.107.097.097 0 0 0-.094.06l-.047-.105a.233.233 0 0 1-.023-.082c0-.083.064-.15.143-.15.062 0 .115.042.135.1 0 0-.055-.122-.055-.269 0-.146.13-.304.13-.304zm1.081 0s.133.158.133.304c0 .147-.055.269-.055.269.02-.058.073-.1.135-.1.079 0 .143.067.143.15a.231.231 0 0 1-.024.082l-.046.105a.097.097 0 0 0-.094-.06.105.105 0 0 0-.102.107c0 .01 0 .018.003.026h.116v.11h-.104l.078.17-.103-.044-.08.097-.077-.097-.102.045.077-.17h-.104v-.11h.117a.108.108 0 0 0 .002-.027.104.104 0 0 0-.102-.107.098.098 0 0 0-.094.06l-.046-.105a.233.233 0 0 1-.023-.082c0-.083.063-.15.143-.15.062 0 .115.042.134.1 0 0-.054-.122-.054-.269 0-.146.13-.304.13-.304zm-.649.891s.133.158.133.304c0 .147-.055.268-.055.268.02-.057.072-.1.135-.1.078 0 .143.068.143.15a.233.233 0 0 1-.024.083l-.046.104a.098.098 0 0 0-.094-.06.105.105 0 0 0-.102.108c0 .01 0 .018.003.027h.116v.11h-.104l.078.17-.103-.045-.08.097-.077-.097-.102.045.077-.17h-.104v-.11h.116a.104.104 0 0 0 .004-.027.105.105 0 0 0-.103-.108.097.097 0 0 0-.094.06l-.046-.104a.232.232 0 0 1-.023-.082c0-.083.064-.15.142-.15.063 0 .116.042.135.1 0 0-.054-.122-.054-.269 0-.146.13-.304.13-.304z" fill="#F2C500"/><path d="M17.974 17.512s.08.129.08.248-.08.238-.08.238h1.68s-.145-.102-.145-.238.146-.248.146-.248h.179v-.608H17.71v.608h.264zm0 10.142s.08-.13.08-.249a.5.5 0 0 0-.08-.237h1.68s-.145.102-.145.237c0 .136.146.249.146.249h.179v.607H17.71v-.607h.264z" fill="#C7A200"/><path fill="#FFF" d="M17.926 18.017h1.731v9.13h-1.73z"/><path d="M19.855 28.112a.869.869 0 0 0-.366-.073.88.88 0 0 0-.37.074.864.864 0 0 1-.371.076.845.845 0 0 1-.372-.08.877.877 0 0 0-.36-.07.85.85 0 0 0-.365.072.862.862 0 0 1-.374.078v1.105a.867.867 0 0 0 .374-.078.853.853 0 0 1 .366-.073c.138 0 .264.027.359.071.095.048.226.08.372.08a.87.87 0 0 0 .371-.076.87.87 0 0 1 .37-.075c.142 0 .271.029.366.074a.837.837 0 0 0 .37.077l.002-1.105a.847.847 0 0 1-.372-.077z" fill="#197BE6"/><path d="M20.227 28.858a.847.847 0 0 1-.372-.077.865.865 0 0 0-.366-.074.871.871 0 0 0-.37.074.87.87 0 0 1-.371.077.85.85 0 0 1-.372-.08.871.871 0 0 0-.36-.071.854.854 0 0 0-.365.072.868.868 0 0 1-.374.079v.214a.87.87 0 0 0 .374-.078.844.844 0 0 1 .366-.073.89.89 0 0 1 .359.07c.095.048.226.08.372.08a.87.87 0 0 0 .371-.076.876.876 0 0 1 .37-.074.86.86 0 0 1 .366.074.842.842 0 0 0 .37.077l.002-.214" fill="#FFF"/><path d="M18.635 21.139c.228.001.481.023.743.067.34.058.65.144.905.246l-.644.198.042.753s.427-.006.766-.107c.298-.09.524-.235.52-.212-.001.006.333-.809.338-.839.062-.338-.722-.754-1.751-.928a5.26 5.26 0 0 0-.912-.073c-.66 0-1.281.066-1.626.195l-.004.948c.338-.142.963-.226 1.623-.248zm1.511 2.179c-.269-.099-.49-.202-.766-.326a6.184 6.184 0 0 1-1.447-.95v.784c-.075.142.477.56 1.228.93.241.118.75.31.99.397.193.069.597.271.597.271s-.54.307-.04.896c.04-.353.413-.495.401-.462v-.944c.04-.125-.375-.375-.963-.596z" fill="#E94B35"/><path d="M20.227 28.412a.847.847 0 0 1-.372-.077.865.865 0 0 0-.366-.074.871.871 0 0 0-.37.075.87.87 0 0 1-.371.076.85.85 0 0 1-.372-.08.871.871 0 0 0-.36-.07.854.854 0 0 0-.365.072.868.868 0 0 1-.374.078v.214c.146 0 .278-.03.374-.078a.844.844 0 0 1 .366-.072.89.89 0 0 1 .359.07c.095.048.226.08.372.08a.87.87 0 0 0 .371-.076.876.876 0 0 1 .37-.074c.142 0 .271.028.366.073a.842.842 0 0 0 .37.077l.002-.214" fill="#FFF"/><path d="M18.143 16.454c-.025-.018-.099-.106-.099-.106l-.059-.054-.054-.094s-.064-.13-.035-.23c.03-.1.08-.136.124-.165.044-.03.137-.065.137-.065s.075-.042.099-.048c.025-.006.113-.035.113-.035s.025-.018.05-.03c.024-.011.059-.011.079-.017.02-.006.069-.026.098-.028.046-.003.118.01.143.01.025 0 .109.006.143.006.034 0 .157-.012.192-.012.034 0 .06-.005.099 0a.49.49 0 0 1 .128.047c.02.012.138.065.182.083.045.017.153.041.202.07.05.03.08.08.104.122.025.04.03.086.04.116.009.029.01.092 0 .122s-.045.09-.045.09l-.054.112-.07.07s-.049.06-.088.054c-.04-.005-.089.13-.69.13s-.698-.13-.698-.13-.017 0-.041-.018z" fill="#CA4638"/><path d="M18.35 16.062l-.024-.15c-.13-.171-.251-.283-.292-.26.01-.03.021-.054.047-.069.116-.068.356.096.537.365l.046.074h.131s-.102-.25-.048-.372c.017-.04.081-.034.081-.034v-.137h-.075v-.046h.075v-.083h.056v.083h.071v.046h-.073s-.001.116.002.137c.008 0 .071 0 .089.036.043.074-.043.37-.043.37h.126l.046-.074c.18-.27.421-.433.537-.365.026.015.037.038.047.07-.04-.024-.16.088-.293.259l-.017.112.018.035a.062.062 0 0 0-.01.037c0 .045.047.081.104.081a.114.114 0 0 0 .086-.036l.022-.023v.028c0 .028.014.053.048.058 0 0 .037.002.088-.031.05-.033.079-.06.079-.06l.003.033s-.05.068-.095.089c-.025.012-.094.228-.123.224-.003 0-.343-.084-.724-.085-.364 0-.709.102-.724.104-.03.004-.098-.231-.123-.243a.382.382 0 0 1-.099-.089l.007-.033s.028.027.078.06c.051.033.09.03.09.03.032-.004.047-.029.047-.057v-.028l.022.023c.018.021.05.036.086.036.052 0 .095-.03.102-.069l-.008-.046zm-13.571 1.45s.08.129.08.248-.08.238-.08.238h1.68s-.146-.102-.146-.238.146-.248.146-.248h.18v-.608H4.513v.608h.265zm0 10.142s.08-.13.08-.249a.5.5 0 0 0-.08-.237h1.68s-.146.102-.146.237c0 .136.146.249.146.249h.18v.607H4.513v-.607h.265z" fill="#C7A200"/><path fill="#FFF" d="M4.731 18.017h1.731v9.13H4.731z"/><path d="M6.66 28.112a.869.869 0 0 0-.366-.073.88.88 0 0 0-.37.074.864.864 0 0 1-.372.076.845.845 0 0 1-.372-.08.877.877 0 0 0-.359-.07.85.85 0 0 0-.365.072.862.862 0 0 1-.374.078v1.105a.867.867 0 0 0 .374-.078.853.853 0 0 1 .365-.073c.138 0 .265.027.36.071.095.048.225.08.371.08a.87.87 0 0 0 .372-.076.87.87 0 0 1 .37-.075c.142 0 .27.029.366.074a.837.837 0 0 0 .37.077l.001-1.105a.847.847 0 0 1-.371-.077z" fill="#197BE6"/><path d="M7.031 28.858a.847.847 0 0 1-.371-.077.865.865 0 0 0-.366-.074.871.871 0 0 0-.37.074.87.87 0 0 1-.372.077.85.85 0 0 1-.372-.08.871.871 0 0 0-.359-.071.854.854 0 0 0-.365.072.868.868 0 0 1-.374.079v.214a.874.874 0 0 0 .374-.078.844.844 0 0 1 .365-.073c.138 0 .265.027.36.07.095.048.225.08.371.08a.87.87 0 0 0 .372-.076.876.876 0 0 1 .37-.074c.142 0 .27.028.366.074a.842.842 0 0 0 .37.077l.001-.214" fill="#FFF"/><path d="M5.752 21.139a4.743 4.743 0 0 0-.743.067c-.34.058-.65.144-.905.246l.644.198-.042.753s-.427-.006-.766-.107c-.298-.09-.524-.235-.52-.212a34.55 34.55 0 0 1-.338-.839c-.062-.338.722-.754 1.751-.928a5.26 5.26 0 0 1 .912-.073c.66 0 1.281.066 1.626.195l.004.948c-.338-.142-.963-.226-1.623-.248zm-1.511 2.179c.269-.099.49-.202.766-.326a6.184 6.184 0 0 0 1.447-.95v.784c.075.142-.477.56-1.228.93-.24.118-.75.31-.99.397a7.85 7.85 0 0 0-.597.271s.54.307.04.896c-.04-.353-.413-.495-.401-.462v-.944c-.04-.125.376-.375.963-.596z" fill="#E94B35"/><path d="M7.031 28.412a.847.847 0 0 1-.371-.077.865.865 0 0 0-.366-.074.871.871 0 0 0-.37.075.87.87 0 0 1-.372.076.85.85 0 0 1-.372-.08.871.871 0 0 0-.359-.07.854.854 0 0 0-.365.072.868.868 0 0 1-.374.078v.214a.86.86 0 0 0 .374-.078.844.844 0 0 1 .365-.072c.138 0 .265.027.36.07.095.048.225.08.371.08a.87.87 0 0 0 .372-.076.876.876 0 0 1 .37-.074.88.88 0 0 1 .366.073.842.842 0 0 0 .37.077l.001-.214" fill="#FFF"/><path d="M4.839 16.454c-.024-.018-.098-.106-.098-.106l-.06-.054-.053-.094s-.065-.13-.035-.23.079-.136.123-.165c.045-.03.138-.065.138-.065s.074-.042.098-.048c.025-.006.114-.035.114-.035s.024-.018.049-.03c.025-.011.06-.011.08-.017.019-.006.068-.026.097-.028.046-.003.119.01.144.01.024 0 .108.006.142.006.035 0 .158-.012.192-.012.035 0 .06-.005.1 0a.49.49 0 0 1 .127.047c.02.012.138.065.182.083.045.017.153.041.203.07.049.03.079.08.103.122.025.04.03.086.04.116.01.029.01.092 0 .122s-.045.09-.045.09l-.054.112-.069.07s-.05.06-.089.054c-.04-.005-.089.13-.69.13s-.697-.13-.697-.13-.017 0-.042-.018z" fill="#CA4638"/><path d="M5.046 16.062l-.024-.15c-.13-.171-.251-.283-.291-.26.01-.03.02-.054.046-.069.116-.068.357.096.537.365.017.025.032.05.046.074h.131s-.102-.25-.048-.372c.018-.04.082-.034.082-.034v-.137h-.076v-.046h.076v-.083h.055v.083h.072v.046h-.074s-.001.116.002.137c.008 0 .072 0 .09.036.043.074-.044.37-.044.37h.127l.046-.074c.18-.27.42-.433.537-.365.025.015.036.038.046.07-.04-.024-.16.088-.292.259l-.018.112.019.035a.062.062 0 0 0-.01.037c0 .045.046.081.103.081a.114.114 0 0 0 .086-.036l.022-.023v.028c0 .028.015.053.048.058 0 0 .038.002.089-.031a.592.592 0 0 0 .078-.06l.003.033s-.05.068-.095.089c-.024.012-.093.228-.123.224-.003 0-.343-.084-.724-.085-.364 0-.709.102-.724.104-.03.004-.098-.231-.123-.243a.382.382 0 0 1-.099-.089l.007-.033s.029.027.079.06.089.03.089.03c.033-.004.047-.029.047-.057v-.028l.022.023c.019.021.05.036.086.036.052 0 .095-.03.103-.069l-.009-.046z" fill="#C7A200"/><g transform="translate(7.543 10)"><path d="M6.334 2.696c.21.098.494.17.804.213.236.032.46.039.656.023.261-.005.639.073 1.016.244.313.142.574.315.747.483l-.15.137-.043.389-.412.483-.205.179-.487.4-.25.02-.075.222s.875 1.158-3.059 1.087C.942 6.506 1.623 5.49 1.623 5.49l-.076-.221-.25-.021-.486-.4-.206-.179-.411-.483-.043-.39L0 3.66c.174-.168.435-.34.747-.483.378-.17.755-.249 1.016-.244.195.016.42.009.656-.023.31-.043.594-.115.805-.213.369-.15.903-.246 1.539-.246.636 0 1.202.096 1.57.246z" fill="#E94B35"/><ellipse fill="#346DA6" cx="4.651" cy=".779" rx="1" ry="1"/><path d="M2.381 3.48a.567.567 0 0 0-.018.206s-.021-.021-.087-.035a.213.213 0 0 0-.113.006s.05.092.07.124c.022.032.059.136.113.223l.039.055a.844.844 0 0 0-.06-.018c-.075-.02-.205-.02-.244-.021l-.118-.003s.007.018.03.057c.026.048.05.078.05.078a.54.54 0 0 0-.311.218.559.559 0 0 0 .37.1s-.012.037-.02.091c-.008.045-.007.063-.007.063l.11-.04c.036-.014.158-.057.22-.1a.512.512 0 0 1 .088-.048.405.405 0 0 1 .044.195c0 .236-.203.428-.454.428a.462.462 0 0 1-.378-.19l-.095-.121v.148c0 .148-.062.282-.208.305 0 0-.168.011-.39-.163a3.07 3.07 0 0 1-.177-.15c.016-.003.029-.001.032.01.04.008.106.018.165.022.08.005.213-.016.254-.022l.12-.018s-.01-.015-.04-.047c-.038-.039-.08-.074-.08-.074a.47.47 0 0 0 .248-.225.757.757 0 0 0-.363-.046s.004-.031.002-.081l-.005-.06s-.066.047-.13.078a.79.79 0 0 0-.236.162c-.048.062-.08.157-.08.157s.064-.22.005-.371C.668 4.22.54 4.195.54 4.195l-.021.104a.28.28 0 0 0-.133-.091l.264-.49a.789.789 0 0 1-.193-.912c.166-.386.738-.672 1.423-.672.131 0 .258.01.38.03a.785.785 0 0 0-.092.324.955.955 0 0 0 .312.8l-.01.016a.521.521 0 0 0-.005-.003.558.558 0 0 0-.068.13l-.025.042.009.007zm.217-.051a.537.537 0 0 1 .095.197s.013-.027.07-.063c.059-.036.108-.035.108-.035s-.016.104-.025.142c-.008.036-.009.148-.031.249a.801.801 0 0 1-.017.063c.066-.037.165-.072.197-.084l.11-.042s0 .02-.007.064c-.008.054-.02.09-.02.09a.558.558 0 0 1 .37.103.541.541 0 0 1-.311.216.703.703 0 0 0 .08.135l-.118-.002c-.04-.001-.17-.001-.244-.021-.05-.014-.1-.033-.135-.048l.002.002a.44.44 0 0 0-.004.055c0 .247.213.447.475.447.234 0 .442-.152.472-.378.007.003.005-.169.021-.17.02-.003.059.164.065.16a.475.475 0 0 0 .453.309c.263 0 .476-.201.476-.448a.41.41 0 0 0-.023-.157l.016-.002-.028-.1c-.077.021-.158.042-.142.06 0 0-.083.06-.175.1-.07.032-.2.054-.238.062l-.117.02s.003-.018.018-.06c.018-.05.036-.083.036-.083a.568.568 0 0 1-.35-.16.563.563 0 0 1 .35-.16s-.018-.032-.036-.083a.421.421 0 0 1-.018-.061l.117.022c.038.007.168.029.238.06.092.042.174.102.174.102-.013.015.04.031.104.05-.014-.04-.026-.06-.034-.051 0 0-.062-.073-.106-.17-.045-.096-.067-.207-.084-.243a3.218 3.218 0 0 1-.056-.137s.056-.01.129.015c.072.026.092.05.092.05a.461.461 0 0 1 .006-.047l-.443-.42c.07-.188.12-.495.127-.842 0-.02.004-.041.004-.06l-.001-.052c0-.058.003-.115.007-.17a1.558 1.558 0 0 0-.719-.166c-.65 0-1.162.363-1.183.802a.787.787 0 0 0 .363.752l-.11.188zm1.666-1.755c.005-.037.01-.073.017-.108.035-.155.19-.27.363-.27s.323.115.358.27c.008.05.016.101.022.155.229-.127.516-.202.829-.202.502 0 .93.2 1.167.492a2.48 2.48 0 0 1 .48-.047c.749 0 1.378.323 1.578.766a.968.968 0 0 1-.138 1.018l.252.496h.017a.28.28 0 0 1 .284.282s-.209-.018-.332.05c-.123.068-.227.271-.227.271-.002-.003-.015.005-.03.014l.004.034s-.184.284-.385.4c-.11.063-.276.13-.408.108-.14-.023-.24-.135-.292-.263a.68.68 0 0 1-.344.092c-.271 0-.515-.148-.611-.37a.706.706 0 0 1-1.042-.03.7.7 0 0 1-.472.179.698.698 0 0 1-.576-.294.696.696 0 0 1-.574.294.702.702 0 0 1-.472-.18.705.705 0 0 1-1.043.03c-.096.223-.34.371-.611.371a.678.678 0 0 1-.344-.092c-.052.128-.152.24-.291.263-.133.021-.3-.045-.41-.109-.2-.115-.384-.399-.384-.399l.001-.012C.607 4.839.56 4.79.56 4.795c0 0-.105-.203-.228-.27C.208 4.455 0 4.472 0 4.472c0-.124.08-.23.193-.267l.247-.458A.967.967 0 0 1 .302 2.73c.2-.443.83-.766 1.578-.766.167 0 .329.016.481.047.236-.291.665-.492 1.167-.492.271 0 .524.057.736.155zM4.88 3.26c.03.058.049.122.054.186 0 0 .018-.025.091-.05.073-.026.128-.016.128-.016s-.038.101-.055.137c-.017.036-.04.147-.084.243-.044.097-.106.17-.106.17-.007-.008-.013.008-.019.04.058-.014.1-.027.089-.039 0 0 .082-.06.174-.102.07-.031.2-.053.239-.06l.116-.022s-.003.018-.018.06c-.019.052-.036.085-.036.085a.562.562 0 0 1 .35.16.567.567 0 0 1-.35.159.63.63 0 0 0 .054.144l-.116-.021c-.04-.008-.169-.03-.24-.062-.091-.04-.175-.1-.175-.1.012-.013-.039-.028-.104-.043l-.006.079.036.006a.417.417 0 0 0-.024.157c0 .247.214.448.477.448.21 0 .39-.13.452-.31.007.005.045-.162.065-.16.017.002.015.174.021.17.03.227.238.38.472.38.262 0 .475-.2.475-.448a.39.39 0 0 0-.004-.055l.072-.07-.001-.062c-.046-.009-.077-.022-.067-.005 0 0-.092.046-.189.072-.073.02-.205.02-.243.021l-.118.003s.006-.018.029-.058c.027-.048.05-.078.05-.078a.541.541 0 0 1-.311-.216.557.557 0 0 1 .37-.102s-.012-.036-.02-.09c-.007-.045-.006-.064-.006-.064l.11.041c.036.014.158.057.22.1.07.047.13.107.147.125a.887.887 0 0 1-.058-.171c-.022-.1-.022-.212-.031-.249a3.577 3.577 0 0 1-.025-.141s.013 0 .033.004l-.125-.214a.788.788 0 0 0 .364-.752c-.021-.44-.534-.802-1.183-.802a1.51 1.51 0 0 0-.814.221l.004.115-.001.051c0 .02.004.041.004.061.006.347.056.654.126.842l-.293.282zm2.106.174a.588.588 0 0 1 .185-.21.577.577 0 0 1 .102.386s.02-.022.087-.035a.213.213 0 0 1 .113.005s-.05.092-.071.124c-.02.032-.058.136-.112.223s-.119.148-.119.148c-.003-.006-.008-.003-.015.006.022-.002.034-.006.029-.015 0 0 .09-.046.188-.072.074-.02.204-.02.243-.021l.118-.003s-.006.018-.029.057a.66.66 0 0 1-.05.078c.13.03.24.117.31.218a.558.558 0 0 1-.37.1s.013.037.02.091c.007.045.007.063.007.063l-.11-.04c-.036-.014-.158-.057-.22-.1a1.158 1.158 0 0 1-.152-.13c.013-.012-.027.007-.08.012a4.995 4.995 0 0 1-.02.056l.026.062a.404.404 0 0 0-.045.195c0 .236.203.428.454.428a.461.461 0 0 0 .378-.19l.095-.121v.148c0 .148.063.282.208.305 0 0 .168.01.39-.163a3.1 3.1 0 0 0 .118-.096c-.02-.004-.034-.005-.037.008-.04.008-.106.018-.165.022-.08.006-.214-.016-.254-.022l-.12-.017s.009-.016.04-.048c.038-.039.079-.074.079-.074a.47.47 0 0 1-.247-.224.757.757 0 0 1 .362-.047s-.004-.031-.001-.081c.002-.042.005-.06.005-.06s.066.047.13.078.187.1.235.162c.027.035.059.13.08.205l.006-.005c-.023-.123-.049-.315-.01-.414a.278.278 0 0 1 .187-.178l.021.105A.256.256 0 0 1 9.03 4.3l-.3-.582a.789.789 0 0 0 .194-.912c-.165-.386-.738-.672-1.423-.672-.13 0-.258.01-.379.03a.785.785 0 0 1 .092.324.954.954 0 0 1-.312.8l.084.145zm-.036.09a.474.474 0 0 0-.007.026s-.002-.005-.01-.013l.017-.013zm-.054.512c-.003-.013-.007-.018-.012-.013L6.88 4.02c-.003.004.003.01.014.016zm-5.118 2.02c.03-.015-.112-.114-.18-.24a.829.829 0 0 1-.083-.318c.837-.254 2.002-.413 3.3-.415 1.296.002 2.47.161 3.308.415 0 0-.038.165-.118.317-.06.117-.172.227-.145.24-.757-.24-1.853-.394-3.051-.396-1.198.002-2.274.157-3.031.397zM4.523.18h-.226v.184h.226v.528h-.284c-.004.018-.02.03-.02.048 0 .046.01.09.031.13l.003.003h.756l.003-.002a.282.282 0 0 0 .032-.13c0-.019-.017-.032-.02-.049h-.276V.365h.226V.18h-.226V0h-.225v.181z" fill="#C7A200"/></g></g></svg>