<svg xmlns="http://www.w3.org/2000/svg" width="20" height="12" viewBox="0 0 20 12"><path fill="#FFF" fill-rule="evenodd" d="M10.644 11.356s.35-.04.529-.239c.164-.181.158-.525.158-.525s-.022-1.602.7-1.839c.711-.232 1.624 1.55 2.593 2.235.732.519 1.288.405 1.288.405l2.59-.037s1.353-.086.712-1.184c-.054-.09-.375-.812-1.925-2.296-1.625-1.554-1.406-1.303.549-3.99 1.19-1.637 1.667-2.636 1.518-3.063-.142-.409-1.018-.3-1.018-.3L15.424.54s-.217-.03-.377.069c-.156.096-.258.322-.258.322s-.46 1.266-1.076 2.344c-1.298 2.272-1.817 2.392-2.029 2.251-.494-.33-.37-1.322-.37-2.026 0-2.203.324-3.121-.631-3.359-.317-.079-.55-.13-1.36-.14-1.041-.01-1.921.004-2.42.256-.332.167-.588.54-.431.562.192.026.628.121.86.446.299.419.288 1.36.288 1.36s.172 2.592-.401 2.914c-.393.22-.931-.23-2.089-2.292-.592-1.056-1.04-2.223-1.04-2.223S4.004.807 3.85.69C3.661.548 3.401.504 3.401.504L.632.523S.216.534.063.72c-.135.165-.01.508-.01.508s2.167 5.233 4.624 7.87c2.252 2.416 4.808 2.258 4.808 2.258h1.159z"/></svg>