<svg xmlns="http://www.w3.org/2000/svg" width="23" height="17" viewBox="0 0 23 17"><path fill="#FFF" fill-rule="evenodd" d="M22.77 3.667S23 5.623 23 7.58v1.834c0 1.956-.23 3.912-.23 3.912s-.225 1.665-.914 2.399c-.875.963-1.855.967-2.305 1.024-3.218.244-8.051.252-8.051.252s-5.98-.057-7.82-.243c-.512-.1-1.661-.07-2.536-1.033-.69-.734-.914-2.4-.914-2.4S0 11.37 0 9.414V7.579c0-1.956.23-3.912.23-3.912s.224-1.665.914-2.399C2.019.305 2.999.301 3.449.245 6.667 0 11.495 0 11.495 0h.01s4.828 0 8.046.245c.45.056 1.43.06 2.305 1.023.689.734.914 2.4.914 2.4zM9.125 11.635l6.214-3.384-6.214-3.407v6.791z"/></svg>