<?xml version="1.0" encoding="UTF-8"?>
<svg width="42px" height="40px" viewBox="0 0 42 40" version="1.1" xmlns="http://www.w3.org/2000/svg" xmlns:xlink="http://www.w3.org/1999/xlink">
    <!-- Generator: Sketch 48.2 (47327) - http://www.bohemiancoding.com/sketch -->
    <title>germany</title>
    <desc>Created with Sketch.</desc>
    <defs></defs>
    <g id="Home" stroke="none" stroke-width="1" fill="none" fill-rule="evenodd" transform="translate(-423.000000, -3696.000000)">
        <g id="Group-40" transform="translate(148.000000, 3392.000000)">
            <g id="Group-7">
                <g id="opinion">
                    <g id="Group-13" transform="translate(1.000000, 261.000000)">
                        <g id="germany" transform="translate(274.000000, 43.000000)">
                            <path d="M40.754717,26.4150943 L1.50943396,26.4150943 C4.36573626,34.3296088 12.072762,40 21.1320754,40 C30.191389,40 37.8984145,34.3296088 40.7547161,26.4150943 L40.754717,26.4150943 L40.754717,26.4150943 Z" id="yellow" fill="#F2C500"></path>
                            <path d="M1.18098191,26.4150943 L40.3284522,26.4150943 C41.0932727,24.2905584 41.509434,22.0043162 41.509434,19.6226416 C41.509434,17.2409669 41.0932727,14.9547247 40.3284513,12.8301887 L1.18098191,12.8301888 C0.416161239,14.9547247 0,17.2409669 0,19.6226416 C0,22.0043162 0.416161239,24.2905584 1.18098278,26.4150943 L1.18098191,26.4150943 L1.18098191,26.4150943 Z" id="red" fill="#E94B35"></path>
                            <path d="M1.50943396,13.5849057 L40.754717,13.5849057 C37.8984145,5.67039113 30.191389,0 21.1320754,0 C12.072762,0 4.36573626,5.67039113 1.50943484,13.5849056 L1.50943396,13.5849057 L1.50943396,13.5849057 Z" id="black" fill="#000000"></path>
                        </g>
                    </g>
                </g>
            </g>
        </g>
    </g>
</svg>