<?xml version="1.0" encoding="UTF-8" standalone="no"?>
<svg width="93px" height="50px" viewBox="0 0 93 50" version="1.1" xmlns="http://www.w3.org/2000/svg" xmlns:xlink="http://www.w3.org/1999/xlink">
    <!-- Generator: Sketch 48.1 (47250) - http://www.bohemiancoding.com/sketch -->
    <title>Logo@2x</title>
    <desc>Created with Sketch.</desc>
    <defs></defs>
    <g id="Home" stroke="none" stroke-width="1" fill="none" fill-rule="evenodd" transform="translate(-675.000000, -57.000000)">
        <g id="Menu" transform="translate(327.000000, 57.000000)">
            <g id="Logo" transform="translate(348.000000, 0.000000)">
                <polygon id="Rectangle-5" fill="#FF137D" points="27.3367347 0 93 0 64.6632653 50 0 50"></polygon>
                <path d="M33.4167197,38 L37.863985,12.4062522 L45.8444531,12.4238303 C48.8093114,12.4355491 51.0358514,13.0390587 52.52414,14.234377 C54.0124285,15.4296954 54.6862499,17.1113191 54.5456242,19.2792985 C54.3815609,21.869155 52.8874353,23.761714 50.0632027,24.9570324 C51.0827389,25.3085966 51.8737466,25.9677696 52.4362494,26.9345713 C52.9987521,27.9013729 53.2389841,29.0410098 53.1569524,30.3535163 C52.9928891,32.7675906 52.0466096,34.6455014 50.3180855,35.9873049 C48.5895614,37.3291083 46.2311867,38 43.2428908,38 L33.4167197,38 Z M40.5182816,26.8554697 L39.3053911,33.7636722 L43.3659376,33.7812504 C44.6315689,33.7812504 45.692105,33.467777 46.547578,32.8408208 C47.4030509,32.2138646 47.9128114,31.3671934 48.0768747,30.3007819 C48.240938,29.2460892 48.0973848,28.4228553 47.6462107,27.8310556 C47.1950366,27.2392558 46.4362552,26.9199231 45.3698437,26.8730478 L40.5182816,26.8554697 Z M41.1510941,23.1289075 L44.6491407,23.1640638 C45.9499283,23.1406262 47.0133941,22.8359417 47.8395701,22.2500014 C48.665746,21.664061 49.1608582,20.8496161 49.3249215,19.8066422 C49.6178917,17.7441321 48.5339183,16.7070331 46.0729687,16.6953143 L42.276094,16.6777362 L41.1510941,23.1289075 Z" id="B" fill="#FFFFFF"></path>
            </g>
        </g>
    </g>
</svg>