<?xml version="1.0" encoding="UTF-8"?>
<svg width="40px" height="40px" viewBox="0 0 40 40" version="1.1" xmlns="http://www.w3.org/2000/svg" xmlns:xlink="http://www.w3.org/1999/xlink">
    <!-- Generator: Sketch 48.2 (47327) - http://www.bohemiancoding.com/sketch -->
    <title>spain</title>
    <desc>Created with Sketch.</desc>
    <defs></defs>
    <g id="Home" stroke="none" stroke-width="1" fill="none" fill-rule="evenodd" transform="translate(-149.000000, -3695.000000)">
        <g id="Group-40" transform="translate(148.000000, 3392.000000)">
            <g id="Group-7">
                <g id="opinion">
                    <g id="Group-13" transform="translate(1.000000, 261.000000)">
                        <g id="spain" transform="translate(0.000000, 42.000000)">
                            <path d="M37.3243531,30 C39.026056,27.0582667 40,23.6428718 40,20 C40,16.3571282 39.026056,12.9417333 37.3243531,10 L2.67564364,10.0000056 C0.973943976,12.9417333 0,16.3571282 0,20 C0,23.6428718 0.973943976,27.0582667 2.67564687,30 L37.3243564,29.9999944 L37.3243531,30 L37.3243531,30 Z" id="yellow" fill="#F2C500"></path>
                            <path d="M36.9999967,30.0000056 C33.6066459,35.9780164 27.264221,40 19.9999984,40 C12.7357758,40 6.39335075,35.9780164 3,30.0000056 L37,30 L36.9999967,30.0000056 L36.9999967,30.0000056 Z M36.9999967,9.99999442 C33.6066459,4.02198367 27.264221,0 19.9999984,0 C12.7357758,0 6.39335075,4.02198367 3,9.99999442 L37,10 L36.9999967,9.99999442 L36.9999967,9.99999442 Z" id="red" fill="#E94B35"></path>
                            <g id="emblem" transform="translate(3.000000, 10.000000)">
                                <g id="Group" transform="translate(4.110057, 6.903736)">
                                    <path d="M1.50374597,10.9267732 C0.729601709,10.5352969 0.216318786,9.74600776 0.216318786,8.84283117 L0.216318786,7.41743831e-17 L9.89166812,7.41743831e-17 L9.89166812,8.84283117 C9.89166812,9.74600776 9.37838459,10.5352969 8.60414394,10.9267732 C7.55400422,11.4513476 6.32429852,11.7667671 5.06354888,11.7667671 C3.80318751,11.7667671 2.55398249,11.4513476 1.50374597,10.9267732 Z" id="path961" fill="#FFFFFF"></path>
                                    <path d="M8.03122954,1.44983517 C8.03771255,1.5158996 8.01072018,1.57380673 8.02117178,1.61036379 C8.03122954,1.64732368 8.03626347,1.67642842 8.05000099,1.70301527 C8.06296401,1.72970284 8.07012258,1.79717736 8.07012258,1.79717736 C8.07012258,1.79717736 8.03307044,1.76978463 7.99872641,1.74319777 C7.96496422,1.7162081 7.94068118,1.69949053 7.94068118,1.69949053 C7.94068118,1.69949053 7.94764892,1.77159735 7.95083893,1.80251482 C7.95451466,1.83343209 7.97183299,1.89164156 7.9998877,1.92608376 C8.02765278,1.95982082 8.08318354,2.0152103 8.10030699,2.0596225 C8.11810702,2.10443752 8.11452722,2.20313163 8.11452722,2.20313163 C8.11452722,2.20313163 8.06944602,2.12820478 8.03074886,2.11470985 C7.9927291,2.10081208 7.90914363,2.052573 7.90914363,2.052573 C7.90914363,2.052573 7.9857634,2.13172954 7.9857634,2.20705921 C7.9857634,2.28228815 7.95451565,2.36788993 7.95451565,2.36788993 C7.95451565,2.36788993 7.91988202,2.29971068 7.87489676,2.25499614 C7.82952471,2.21058394 7.76683538,2.16586963 7.76683538,2.16586963 C7.76683538,2.16586963 7.81578719,2.28228815 7.81578719,2.36084045 C7.81578719,2.43999697 7.80214661,2.60797791 7.80214661,2.60797791 C7.80214661,2.60797791 7.76393316,2.54302129 7.72571971,2.51139908 C7.68721646,2.48088444 7.64223119,2.45349193 7.6281069,2.43324962 C7.61446631,2.41270517 7.67357587,2.49790413 7.67996093,2.54936582 C7.68673679,2.60092842 7.71024126,2.78451957 7.86444819,3.01896731 C7.95451565,3.15603183 8.09392193,3.39571677 8.39256481,3.31686237 C8.69159565,3.23841079 8.58063307,2.82006871 8.51794372,2.62469506 C8.45525416,2.42972486 8.42390949,2.21340374 8.42758621,2.13777216 C8.43077724,2.06284511 8.48301903,1.84017966 8.47615028,1.79858724 C8.46928352,1.75780051 8.45302954,1.59868158 8.49017864,1.47048032 C8.52839126,1.33694139 8.5601227,1.28507665 8.58063307,1.22998932 C8.60104548,1.17530498 8.6183618,1.14438754 8.6253275,1.09645038 C8.63219426,1.04851342 8.63219426,0.958984065 8.63219426,0.958984065 C8.63219426,0.958984065 8.68762809,1.06553311 8.70165543,1.10319796 C8.71539297,1.1411649 8.71539297,1.25375658 8.71539297,1.25375658 C8.71539297,1.25375658 8.72574458,1.1411649 8.80942599,1.08648038 C8.89301146,1.03109091 8.99023771,0.973183757 9.01461669,0.942266513 C9.03889973,0.91104693 9.0460583,0.890804598 9.0460583,0.890804598 C9.0460583,0.890804598 9.03889871,1.08295563 8.98694876,1.15858743 C8.95241184,1.20763215 8.81629476,1.36745603 8.81629476,1.36745603 C8.81629476,1.36745603 8.88614269,1.33976118 8.93470775,1.33694139 C8.98336894,1.33301403 9.0180026,1.33694139 9.0180026,1.33694139 C9.0180026,1.33694139 8.95889284,1.38487854 8.88246696,1.50129686 C8.80613701,1.61751419 8.83719087,1.6277863 8.78166111,1.72366042 C8.72574458,1.81953451 8.68075932,1.82305927 8.61120119,1.88136924 C8.50671961,1.96868324 8.5630239,2.31602521 8.57666449,2.36758781 C8.59069183,2.41874759 8.77121254,2.84413852 8.77479234,2.94686091 C8.77798336,3.04978492 8.79568845,3.27929803 8.62164975,3.42663424 C8.50962182,3.52220601 8.32629464,3.52291138 8.28450241,3.55020318 C8.24261224,3.57719224 8.15980129,3.66279422 8.15980129,3.8411486 C8.15980129,4.0198049 8.22181305,4.04679396 8.27047405,4.0915087 C8.31942587,4.13622344 8.38182441,4.11215363 8.39575581,4.14659583 C8.40988011,4.18063544 8.41665193,4.20128037 8.43764499,4.22182544 C8.45854111,4.24206775 8.47256947,4.26623742 8.46540988,4.30349901 C8.45854312,4.34156688 8.37853543,4.42716908 8.35077055,4.48930571 C8.32271484,4.55033435 8.26718508,4.71197116 8.26718508,4.73573823 C8.26718508,4.75990789 8.26070207,4.83523736 8.28450241,4.87320452 C8.28450241,4.87320452 8.37137686,4.97874712 8.31217034,4.99929114 C8.27405385,5.01278672 8.23661493,4.97441609 8.21862002,4.97874712 C8.16667004,4.99294701 8.13958174,5.02628123 8.124587,5.02346185 C8.08995334,5.01671303 8.08995334,4.99898943 8.08637355,4.94813136 C8.08318254,4.89697157 8.08491941,4.87602494 8.06944399,4.87602494 C8.04854787,4.87602494 8.03800238,4.8938505 8.03451951,4.92083956 C8.0307428,4.94813136 8.0307428,5.00956368 8.00675443,5.00956368 C7.98227853,5.00956368 7.94764487,4.96515168 7.92674876,4.95528176 C7.90585264,4.94490621 7.84683902,4.93463683 7.84345311,4.90734503 C7.83996925,4.8799523 7.8781837,4.82174283 7.91630019,4.81137043 C7.95451364,4.80109999 7.9894371,4.78085559 7.96496221,4.76031156 C7.9404863,4.73966558 7.91630019,4.73966558 7.89221104,4.76031156 C7.86773615,4.78085559 7.81578516,4.7634337 7.81907414,4.73261609 C7.82264889,4.70169862 7.8295227,4.66433612 7.82585,4.64701411 C7.82265899,4.63029654 7.78086473,4.59585434 7.83600874,4.56453425 C7.89182833,4.53402045 7.91591748,4.59232958 7.97144725,4.58195718 C8.02726803,4.57208622 8.05503292,4.55073802 8.07592903,4.51700013 C8.09682616,4.48286067 8.09314941,4.4107532 8.05503292,4.36644213 C8.01681947,4.32162626 7.97870278,4.31457677 7.96457848,4.28718406 C7.95055114,4.25989226 7.93004178,4.19483533 7.93004178,4.19483533 C7.93004178,4.19483533 7.94009954,4.31457677 7.93323278,4.33199971 C7.92645692,4.34901897 7.93004178,4.42072404 7.93004178,4.42072404 C7.93004178,4.42072404 7.89182833,4.376311 7.86048365,4.34227224 C7.82952675,4.30783004 7.79818207,4.20520772 7.79818207,4.20520772 C7.79818207,4.20520772 7.79489006,4.30108224 7.79489006,4.3390492 C7.79489006,4.376311 7.83629553,4.4107532 7.82265495,4.4246514 C7.8086276,4.43814593 7.74274521,4.35254373 7.72542889,4.3390492 C7.7077248,4.32525193 7.65229198,4.28083993 7.62781608,4.23249953 C7.60362997,4.18456279 7.58592588,4.11638375 7.57915406,4.09191132 C7.57218633,4.06804335 7.56077339,3.96119303 7.57218633,3.93420292 C7.58950366,3.89331568 7.61736548,3.82120801 7.61736548,3.82120801 L7.48182884,3.82120801 C7.4090787,3.82120801 7.3568379,3.79744094 7.32907302,3.84860072 C7.30140509,3.90006241 7.31504568,4.00308735 7.34967931,4.13662606 C7.38460279,4.26976217 7.40511214,4.33512184 7.39505135,4.35929151 C7.38489361,4.38305878 7.33961752,4.43814593 7.3223012,4.44811571 C7.30459711,4.45879086 7.25593611,4.45516941 7.23503898,4.44529843 C7.21452963,4.43492289 7.17999293,4.4175031 7.11362784,4.4175031 C7.04774626,4.4175031 7.00595302,4.42073035 6.98186489,4.41468581 C6.95738896,4.40763213 6.89827941,4.37671888 6.87012676,4.38346665 C6.84236187,4.39052036 6.79437746,4.41609656 6.80743842,4.45557412 C6.82872129,4.51730813 6.78692906,4.53120528 6.75887336,4.52768053 C6.73110847,4.52405381 6.70731014,4.51378339 6.67199891,4.50381255 C6.63746221,4.49323832 6.58512446,4.50381255 6.59208917,4.46232086 C6.59886503,4.42113192 6.61298628,4.41790886 6.63020567,4.38739401 C6.64781281,4.35607372 6.65429482,4.33623403 6.63474983,4.33412002 C6.61037088,4.3316076 6.58589495,4.32877983 6.56683651,4.34509687 C6.54845583,4.36110908 6.51856227,4.39555149 6.4939894,4.38276234 C6.46941656,4.36926676 6.45045525,4.33975982 6.45045525,4.27510446 C6.45045525,4.21085278 6.38515451,4.15475856 6.44503255,4.15757901 C6.50481968,4.16039627 6.580859,4.20591834 6.59449959,4.17107352 C6.60785038,4.13592595 6.59962946,4.12031636 6.56721822,4.09292365 C6.53461632,4.06633721 6.49398436,4.05032395 6.53751852,4.01547913 C6.580859,3.98103693 6.59169433,3.98103693 6.60823713,3.9619026 C6.62449011,3.94337273 6.64780474,3.8830484 6.67818202,3.89795365 C6.73787222,3.92746037 6.68098929,3.97036177 6.74077442,4.03964986 C6.80065851,4.10923858 6.83848419,4.13381089 6.93899922,4.12273311 C7.03941832,4.11215889 7.06689357,4.09866435 7.06689357,4.06915659 C7.06689357,4.03964986 7.05848182,3.98637503 7.05557456,3.96472302 C7.05316109,3.94337273 7.06940802,3.86562546 7.06940802,3.86562546 C7.06940802,3.86562546 7.02326227,3.89543599 7.00962168,3.92454009 C6.99656173,3.95404786 6.96918361,4.00450228 6.96918361,4.00450228 C6.96918361,4.00450228 6.95805747,3.94448071 6.96124646,3.89543599 C6.96308433,3.86673344 6.97285529,3.81658052 6.97179096,3.80671165 C6.96917554,3.78002431 6.95012131,3.7129522 6.95012131,3.7129522 C6.95012131,3.7129522 6.9337714,3.78536136 6.92312997,3.80671165 C6.91229464,3.82796104 6.90687698,3.91396586 6.90687698,3.91396586 C6.90687698,3.91396586 6.84312429,3.85605809 6.86082736,3.75877492 C6.87408119,3.68374717 6.84989611,3.58475052 6.87156573,3.55242338 C6.89284962,3.52009621 6.94431588,3.38897425 7.06940397,3.38333445 C7.19439593,3.37840421 7.29200874,3.38897951 7.33563985,3.38656168 C7.37907708,3.38333445 7.53376789,3.35423434 7.53376789,3.35423434 C7.53376789,3.35423434 7.24866847,3.20186297 7.18356061,3.1560413 C7.11835581,3.11092394 7.01784056,2.99299479 6.98504479,2.93941826 C6.95253982,2.88574081 6.92274321,2.78170861 6.92274321,2.78170861 C6.92274321,2.78170861 6.87156573,2.78412641 6.82512938,2.81081376 C6.77898382,2.83709849 6.7329342,2.87798595 6.70584692,2.90950787 C6.67837186,2.94183502 6.63522446,3.01434511 6.63522446,3.01434511 C6.63522446,3.01434511 6.64316161,2.92058563 6.64316161,2.89107786 C6.64316161,2.86227545 6.63773888,2.80517397 6.63773888,2.80517397 C6.63773888,2.80517397 6.60532987,2.93367754 6.54012587,2.98161427 C6.47492108,3.03025639 6.39888195,3.09702576 6.39888195,3.09702576 C6.39888195,3.09702576 6.40720283,3.02532196 6.40720283,3.00900701 C6.40720283,2.99299479 6.42345581,2.90991049 6.42345581,2.90991049 C6.42345581,2.90991049 6.37730926,2.98161427 6.30668779,2.99581417 C6.23606533,3.00900701 6.1326481,3.00618972 6.12442516,3.05200931 C6.11648801,3.09702576 6.14348342,3.15886067 6.12732333,3.19078521 C6.11097341,3.22311236 6.07575892,3.24446267 6.07575892,3.24446267 C6.07575892,3.24446267 6.03512697,3.20931509 5.9997198,3.20679741 C5.96440857,3.20398015 5.93170973,3.22311236 5.93170973,3.22311236 C5.93170973,3.22311236 5.90181617,3.18262774 5.91255453,3.1560413 C5.92367968,3.1293529 5.97775933,3.08927195 5.96440857,3.072957 C5.95076798,3.05694374 5.90723383,3.07859154 5.8801455,3.09178961 C5.85315517,3.10528414 5.79588347,3.11837605 5.80130113,3.072957 C5.80672383,3.02743702 5.82035938,3.00084953 5.80672383,2.96852236 C5.79317918,2.93690058 5.80130113,2.91524753 5.82326664,2.90709112 C5.84484033,2.89963796 5.93171477,2.90950892 5.9399377,2.8889628 C5.94787485,2.86731079 5.91836401,2.84062324 5.86109232,2.82712871 C5.80411144,2.81403576 5.77683026,2.77888924 5.80672383,2.74938145 C5.8366174,2.71987368 5.84484033,2.71211987 5.85838398,2.68512976 C5.87192764,2.65813965 5.87724834,2.61010201 5.92910238,2.63427275 C5.98027983,2.65813965 5.96944451,2.71705431 6.02429668,2.73588692 C6.0779896,2.75502124 6.20588296,2.7280343 6.23277737,2.71211987 C6.26025243,2.69570399 6.34702993,2.62893465 6.37692352,2.61261969 C6.406913,2.5970103 6.53151719,2.50043127 6.53151719,2.50043127 C6.53151719,2.50043127 6.45838028,2.44745875 6.43100215,2.42016695 C6.4040108,2.3934794 6.35534981,2.32952961 6.33126066,2.31603468 C6.30668881,2.3022378 6.18711451,2.25460279 6.14638664,2.25178299 C6.10565775,2.24896361 5.98066659,2.20384603 5.98066659,2.20384603 C5.98066659,2.20384603 6.03764747,2.1847115 6.05670572,2.16869887 C6.07576396,2.15268626 6.11862074,2.11220164 6.14096898,2.11502143 C6.16225185,2.11794171 6.16757258,2.11794171 6.16757258,2.11794171 C6.16757258,2.11794171 6.05128806,2.11220099 6.02671621,2.1047489 C6.00233624,2.0961888 5.93171477,2.05076932 5.9047234,2.05076932 C5.87724834,2.05076932 5.82326664,2.0617466 5.82326664,2.0617466 C5.82326664,2.0617466 5.89640355,2.0135073 5.95619068,2.00283237 C6.01597683,1.99255983 6.06212338,1.99467489 6.06212338,1.99467489 C6.06212338,1.99467489 5.96992822,1.96798734 5.94787082,1.9360628 C5.92629711,1.90373543 5.9047234,1.85610061 5.88808366,1.83444818 C5.87192764,1.8131988 5.86109232,1.77805186 5.83119974,1.77553418 C5.80130617,1.77271375 5.74964602,1.8131988 5.71984939,1.81027829 C5.69034257,1.80786154 5.66828518,1.78862609 5.66538298,1.74350895 C5.66335324,1.69778756 5.66538298,1.71369946 5.65503135,1.6899322 C5.64419602,1.66546019 5.60066267,1.60926505 5.64129383,1.59617294 C5.68240947,1.58267799 5.76918798,1.60402766 5.77712009,1.58801546 C5.78544096,1.57200285 5.73107149,1.52376378 5.69576024,1.50493137 C5.66044901,1.48640107 5.60346793,1.45407391 5.63336172,1.42748684 C5.66335123,1.40079929 5.69305091,1.39022484 5.70940084,1.36605495 C5.72565383,1.34188506 5.74471207,1.27511549 5.78002229,1.29636488 C5.81533352,1.31771497 5.8641884,1.4224515 5.89137366,1.41429423 C5.91875077,1.40613675 5.92078252,1.33120993 5.91584855,1.29928538 C5.91043595,1.26695824 5.91584855,1.21086381 5.9425501,1.21610058 C5.96992822,1.22143868 5.99150191,1.25880077 6.03513201,1.26192288 C6.07827943,1.26444056 6.14348442,1.25134843 6.13806676,1.28287015 C6.13264406,1.31489518 6.10807626,1.35467486 6.07827943,1.38982202 C6.04916037,1.42496918 6.03542285,1.49425641 6.05419027,1.53967569 C6.07315157,1.58549778 6.12229749,1.65800765 6.16554082,1.6871124 C6.20868822,1.71651904 6.29014501,1.73827197 6.34199902,1.77271418 C6.3934663,1.80786134 6.51313654,1.90655523 6.55386543,1.91723039 C6.59449656,1.92820744 6.63522545,1.94955753 6.63522545,1.94955753 C6.63522545,1.94955753 6.68127507,1.92820744 6.74406037,1.92820744 C6.80636297,1.92820744 6.95012233,1.9388826 7.00449081,1.91471251 C7.05886049,1.8902405 7.12948297,1.85046082 7.10781232,1.79930102 C7.08633555,1.7488464 6.96666514,1.70302411 6.97750046,1.66324443 C6.98833476,1.62316283 7.03186892,1.62034283 7.1049101,1.61752303 C7.17814396,1.61500535 7.27865897,1.63101797 7.29742742,1.52376378 C7.31648567,1.41681191 7.32190333,1.35497697 7.21925961,1.33120993 C7.11584136,1.30704004 7.03970509,1.30462306 7.02113055,1.22677572 C7.00187941,1.14933121 6.9829171,1.13059951 7.00449081,1.10884657 C7.02654821,1.0878991 7.06427815,1.07692205 7.14031727,1.07198742 C7.21635739,1.06624669 7.30313488,1.06624669 7.32770775,1.04711237 C7.35218365,1.02898509 7.35721354,0.977825317 7.38710713,0.956173108 C7.41690375,0.935225838 7.53405873,0.915990606 7.53405873,0.915990606 C7.53405873,0.915990606 7.67356172,0.987090375 7.80319681,1.08719416 C7.9191903,1.17742866 8.02405985,1.31066548 8.02405985,1.31066548 C8.02406995,1.30884372 8.02447386,1.38095076 8.03122954,1.44983517 Z" id="path989" fill="#9C56B8"></path>
                                    <path d="M7.8374409,0.876705967 L7.8078584,0.87859111 C7.8065135,0.881732688 7.79322156,0.900133571 7.78064617,0.910276406 C7.75446467,0.932088358 7.7149869,0.934601629 7.69272283,0.916290673 C7.68190012,0.906776167 7.67653987,0.893491554 7.67849806,0.879847924 C7.66118107,0.887477487 7.64314322,0.887477487 7.6262394,0.879220174 C7.59974802,0.865935761 7.59315156,0.834250064 7.61242671,0.807950328 C7.61551459,0.802923606 7.61861325,0.796281411 7.62324942,0.792511504 L7.62129123,0.763698318 L7.58552433,0.77096902 L7.575217,0.788023519 C7.55295185,0.809925041 7.51996836,0.815580091 7.50347552,0.802654517 C7.49543839,0.796640249 7.48956062,0.77985542 7.49007598,0.779227091 C7.49039877,0.779854841 7.48152239,0.786766705 7.47234692,0.788651848 C7.41751143,0.800410535 7.39565837,0.695300982 7.39442213,0.668103448 L7.3763843,0.690274439 C7.3763843,0.690274439 7.39256618,0.753196444 7.38442143,0.806424424 C7.3763843,0.859562833 7.35483871,0.912790791 7.35483871,0.912790791 C7.43132092,0.929845312 7.54573454,0.983970866 7.65922074,1.06026723 C7.77291351,1.13593547 7.86227966,1.21824573 7.89918081,1.27587192 C7.89918081,1.27587192 7.95793373,1.2473282 8.01967663,1.23027371 C8.08079982,1.21286017 8.15862238,1.21250113 8.15862238,1.21250113 L8.18078318,1.19356167 C8.14821176,1.19769079 8.01895469,1.20244769 8.02153152,1.15523397 C8.02206948,1.14769436 8.02854654,1.13943609 8.02967627,1.13943609 C8.02892311,1.14006386 8.00823635,1.13844857 7.99895974,1.13342184 C7.98019994,1.1226505 7.98061203,1.09509413 8.00132676,1.07229483 L8.01936461,1.06089518 L8.02049434,1.03055627 L7.98586146,1.0346854 C7.98277355,1.03845566 7.97483217,1.0428537 7.97019386,1.04671335 C7.94298163,1.06726849 7.90381265,1.06879439 7.88227053,1.04949609 C7.86928285,1.03845548 7.86526211,1.02355522 7.87082895,1.00802662 C7.85505808,1.01215575 7.83856632,1.01089931 7.82465034,1.0038975 C7.79826332,0.989984577 7.79321295,0.957401662 7.81362213,0.932089115 C7.823101,0.919702098 7.84196731,0.90516105 7.8452661,0.903635146 L7.83815426,0.87697617 L7.8374011,0.876704475 L7.8374409,0.876705967 L7.8374409,0.876705967 Z" id="path1169" fill="#F2C500"></path>
                                    <path d="M5.10136654,11.3840966 C5.10136654,11.3840966 4.68621217,11.1756806 4.59455346,11.1577096 C4.36748625,11.1130211 4.11232049,11.149198 4.00189753,11.1437811 C4.00500798,11.1467798 4.13430161,11.2327715 4.19101646,11.2859716 C4.24783521,11.3388819 4.43705781,11.4446067 4.54395581,11.469563 C4.77285193,11.5231148 5.10136653,11.4701816 5.10136653,11.4701816 L5.06263786,11.749955 L5.17985455,11.6940894 L5.17985455,11.4157673 C5.37376776,11.2859716 5.79975099,11.5628257 6.37834829,11.1852232 C5.52516714,11.0276306 5.28137889,11.3664804 5.16507732,11.3856974 L5.15906407,11.2602045 L5.08238075,11.2602045 L5.10136654,11.3840966 Z" id="path1032" fill="#058E6E"></path>
                                    <path d="M5.3570843,10.4712456 C5.56444139,10.5319315 5.66951607,10.6822373 5.66951607,10.8581765 C5.66951607,11.0873255 5.44110448,11.2612254 5.14453928,11.2612254 C4.84807322,11.2612254 4.60758749,11.0873255 4.60758749,10.8581765 C4.60758749,10.6849556 4.70647618,10.4914422 4.91263523,10.4774606 C4.91263523,10.4774606 4.90634818,10.4593033 4.88858655,10.4294945 C4.86723225,10.4072587 4.82502259,10.3657984 4.82502259,10.3657984 C4.82502259,10.3657984 4.90375419,10.3514287 4.94915695,10.3682208 C4.99485927,10.3850189 5.02489501,10.4130804 5.02489501,10.4130804 C5.02489501,10.4130804 5.04644888,10.3720083 5.0765844,10.3401603 C5.10701907,10.3086042 5.14643497,10.2887958 5.14643497,10.2887958 C5.14643497,10.2887958 5.19203791,10.3260814 5.20700559,10.3510354 C5.22187327,10.3767658 5.23155278,10.4072537 5.23155278,10.4072537 C5.23155278,10.4072537 5.27346329,10.3736583 5.30988564,10.3599676 C5.34620801,10.345986 5.39310774,10.3350146 5.39310774,10.3350146 C5.39310774,10.3350146 5.3797358,10.3791932 5.3708552,10.4017198 C5.36187667,10.4240518 5.3570843,10.4712406 5.3570843,10.4712406" id="path1030" fill="#F6CB7E"></path>
                                    <polygon id="path965" stroke="#262626" stroke-width="0.1" fill="#CA4638" points="0.216318786 5.59146991 5.05399345 5.59146991 5.05399345 0 0.216318786 0"></polygon>
                                    <path d="M2.64078359,11.2805523 C1.30168568,11.2805523 0.216318786,10.2147302 0.216318786,8.89980728 L0.216318786,4.94495887e-17 L5.05399345,4.94495887e-17 L5.05399345,5.52294501 L9.89753506,5.52294501 L9.89753506,8.89980716 C9.89753506,8.89980716 9.89753506,11.2805527 7.49964977,11.2805527 C5.10176448,11.2805531 5.05399345,8.89980728 5.05399345,8.89980728 C5.05399345,10.2147302 3.97939636,11.2805523 2.64078359,11.2805523 Z" id="path977" fill="#E94B35"></path>
                                    <path d="M3.52396192,1.83808277 L3.52396192,3.30096685 L3.91340349,3.3025224 L3.91340349,4.08674169 L1.08159393,4.09112937 L1.08159393,3.30691006 L1.48423944,3.30562273 L1.48423944,1.84241963 L1.29791271,1.8428158 L1.29791271,1.84282792 L1.29791271,1.11828249 L1.60865618,1.1164193 L1.70095707,1.18051514 L1.70493217,1.53153727 L1.96691804,1.53230717 L1.96478284,1.1699214 L2.04441115,1.11378072 L2.31263987,1.11350575 L2.4041693,1.18578329 L2.40337428,1.53337362 L2.67453321,1.53444049 L2.67848456,1.19028199 L2.74780199,1.11509528 L3.0141679,1.11482031 L3.09511343,1.18500767 L3.10569731,1.52198315 L3.35303108,1.52330078 L3.34853353,1.19027979 L3.43397601,1.11377499 L3.77574606,1.11481986 L3.77574606,1.83754743 L3.52396192,1.83808277 Z M1.73055028,2.38937765 L2.08452647,2.38937765 L2.08452647,1.9841986 C2.08452647,1.8736959 2.02016707,1.7816092 1.90753838,1.7816092 C1.79490969,1.7816092 1.73055028,1.8736959 1.73055028,1.9841986 L1.73055028,2.38937765 Z M2.92706357,2.39117187 L3.28103978,2.39117187 L3.28103978,1.98599283 C3.28103978,1.87549021 3.21668042,1.78340342 3.10405157,1.78340342 C2.9914231,1.78340342 2.92706357,1.87549021 2.92706357,1.98599283 L2.92706357,2.39117187 Z M2.91524803,3.74781221 L2.91524803,3.26488185 C2.91524803,3.17289579 2.87495816,2.89693635 2.49220325,2.89693635 C2.12959348,2.89693635 2.08930358,3.17289579 2.08930358,3.26488185 L2.08930358,3.74781221 L2.91524803,3.74781221 Z" id="path6420" fill="#F2C500"></path>
                                    <g transform="translate(5.516129, 5.723422)" id="Shape">
                                        <path d="M0.459504364,2.26248779 C0.467724478,2.28047091 0.472348292,2.29855981 0.472348292,2.31770654 C0.472348292,2.38265733 0.418814801,2.43449102 0.352026376,2.43449102 C0.285751708,2.43449102 0.231909962,2.38265733 0.231909962,2.31770654 C0.231909962,2.29855981 0.236533776,2.28047091 0.244959393,2.26470923 L0.0770635674,2.26248779 C0.073570019,2.28015356 0.0715149905,2.29855981 0.0715149905,2.31770654 C0.0715149905,2.44009752 0.153716129,2.54387069 0.2671537,2.57877909 L0.266948197,3.00328646 L0.443064137,3.00434429 L0.443372391,2.576875 C0.525162524,2.54947719 0.589484915,2.48632471 0.617638805,2.4059296 L1.09060361,2.4059296 L1.09060361,2.26248779 L0.459504364,2.26248779 L0.459504364,2.26248779 Z M2.7796315,2.26248779 L2.7796315,2.4059296 L2.35434336,2.40709321 C2.34776727,2.42623994 2.33718387,2.44390571 2.32701148,2.46072522 L2.82093757,3.03851221 L2.68838824,3.14894971 L2.19682543,2.57052802 C2.1877833,2.57348994 2.18326224,2.57719235 2.17370636,2.57983693 L2.17247334,3.53579831 L1.99841243,3.53579831 L1.99800142,2.57571139 C1.99060332,2.57391307 1.98443824,2.57010489 1.97755389,2.56671983 L1.4658518,3.14894971 L1.33330247,3.03851221 L1.8446963,2.45406088 C1.83575693,2.43935704 1.82928359,2.42327802 1.82342676,2.4059296 L1.38385617,2.4059296 L1.38385617,2.26248779 L2.7800425,2.26248779 L2.7796315,2.26248779 L2.7796315,2.26248779 Z M3.06291717,2.26248779 L3.06291717,2.4059296 L3.53629298,2.4059296 C3.56444687,2.48632471 3.62805,2.54947719 3.71045664,2.576875 L3.7107649,3.00434429 L3.88657258,3.00328646 L3.88616157,2.57877909 C3.99980465,2.54387069 4.08231404,2.44009752 4.08231404,2.31770654 C4.08231404,2.29855981 4.08036176,2.28015356 4.0760462,2.26248779 L3.90886964,2.26248779 C3.916987,2.28047091 3.92119981,2.29855981 3.92119981,2.31770654 C3.92119981,2.38265733 3.86807732,2.43449102 3.80139165,2.43449102 C3.73521973,2.43449102 3.68117249,2.38265733 3.68117249,2.31770654 C3.68117249,2.29855981 3.6857963,2.28047091 3.69432467,2.26470923 L3.06291717,2.26248779 L3.06291717,2.26248779 Z M2.34807552,4.69983495 C2.48607068,4.67740894 2.61327694,4.63826922 2.73883918,4.58389673 L2.82515038,4.73527227 C2.68068188,4.79905945 2.52501347,4.84496929 2.36276898,4.87003987 C2.33574535,4.99359447 2.2237463,5.0863662 2.08893643,5.0863662 C1.95443482,5.0863662 1.84223027,4.99475808 1.81448738,4.87204975 C1.64309801,4.84793121 1.48054526,4.8024445 1.3283704,4.73527227 L1.4150926,4.58389673 C1.54723093,4.64133693 1.68820588,4.67963039 1.83452391,4.70057543 C1.86545209,4.63160489 1.92206812,4.57829023 1.99646015,4.55343121 L1.99800142,3.81231519 L2.17165133,3.81231519 L2.17329535,4.55078664 C2.25035892,4.57448204 2.31540057,4.62853718 2.34776727,4.69983495 L2.34807552,4.69983495 L2.34807552,4.69983495 Z M1.16715342,4.45124479 L1.08145873,4.60336081 C0.934524194,4.50942547 0.80361888,4.39348725 0.691208824,4.2633741 C0.601815085,4.29045456 0.500810436,4.27437554 0.42456888,4.21048258 C0.306610247,4.11199856 0.292327799,3.93925485 0.393332448,3.82469181 L0.408025901,3.80861279 C0.336921917,3.64327389 0.28883425,3.46555837 0.272394023,3.27927443 L0.448098956,3.28001491 C0.461867647,3.43900682 0.500399431,3.59038236 0.560406262,3.73234321 C0.609829696,3.72514996 0.662643928,3.7311796 0.710012334,3.7492685 L1.14958292,3.24849156 L1.28202951,3.35861171 L0.845233207,3.85854239 C0.904212524,3.95089098 0.901849241,4.07000269 0.834444307,4.16087033 C0.931441651,4.27141361 1.04282419,4.36979185 1.16715342,4.45124479 L1.16715342,4.45124479 Z M0.515401139,3.92613775 C0.558659488,3.8765255 0.634490038,3.870919 0.684940987,3.91291487 C0.735494687,3.95501652 0.741659772,4.029382 0.698504175,4.07825377 C0.655143074,4.12744289 0.579415275,4.13347252 0.528964326,4.09137087 C0.478513378,4.04895187 0.472348292,3.97532687 0.515401139,3.92613775 L0.515401139,3.92613775 Z M0.29386907,3.43096731 L0.113232068,3.38939458 L0.0877497154,2.91834267 L0.266948197,2.85741164 L0.2671537,3.12758154 C0.2671537,3.23230675 0.276195825,3.33153125 0.29386907,3.43096731 L0.29386907,3.43096731 Z M0.443783397,2.84693912 L0.623701139,2.89052173 C0.623701139,2.89052173 0.632948767,3.19327281 0.629146964,3.12525431 C0.624420398,3.04602281 0.648772486,3.36199677 0.648772486,3.36199677 L0.467313472,3.4235625 C0.449229222,3.32740571 0.443064137,3.2289217 0.443064137,3.12758154 L0.443372391,2.84693912 L0.443783397,2.84693912 L0.443783397,2.84693912 Z M1.03696736,4.35392439 C1.18852571,4.47568068 1.36464165,4.57448204 1.55493729,4.6371056 L1.59501034,4.45801491 C1.43862268,4.40723904 1.29364042,4.33297935 1.1661259,4.23639943 L1.03696736,4.35392439 L1.03696736,4.35392439 Z M0.949936907,4.50868499 C1.10365304,4.6277967 1.27946072,4.723213 1.46780408,4.78932741 L1.33330247,4.91891164 C1.18225787,4.86147144 1.04025541,4.785625 0.909966603,4.69539206 L0.949936907,4.50868499 L0.949936907,4.50868499 Z M1.18472391,3.47053017 L1.35652429,3.54563614 L1.67084089,3.18650269 L1.56757571,3.03364619 L1.18472391,3.47053017 L1.18472391,3.47053017 Z M1.05145531,3.35966954 L0.948395636,3.20607256 L1.26291774,2.84693912 L1.43420436,2.92236243 L1.05145531,3.35966954 L1.05145531,3.35966954 Z M2.98657287,4.45124479 L3.07247306,4.60336081 C3.21920209,4.50942547 3.3503129,4.39348725 3.46272296,4.2633741 C3.55170569,4.29045456 3.65312135,4.27437554 3.72926015,4.21048258 C3.84721879,4.11199856 3.86078197,3.93925485 3.76039383,3.82469181 L3.74549488,3.80861279 C3.81680436,3.64327389 3.86499478,3.46555837 3.88071575,3.27927443 L3.70593558,3.28001491 C3.69206414,3.43900682 3.65312135,3.59038236 3.59332002,3.73234321 C3.54369108,3.72514996 3.49128786,3.7311796 3.44350844,3.7492685 L3.00434886,3.24849156 L2.87179953,3.35861171 L3.30828757,3.85854239 C3.24971926,3.95089098 3.25197979,4.07000269 3.31907647,4.16087033 C3.22228463,4.27141361 3.11100484,4.36979185 2.98657287,4.45124479 L2.98657287,4.45124479 Z M3.63801689,3.92613775 C3.59486129,3.8765255 3.51933899,3.870919 3.4689908,3.91291487 C3.41833435,3.95501652 3.41227201,4.029382 3.45542761,4.07825377 C3.49858321,4.12744289 3.57451651,4.13347252 3.62496746,4.09137087 C3.67552116,4.04895187 3.68117249,3.97532687 3.63801689,3.92613775 L3.63801689,3.92613775 Z M3.85965171,3.43096731 L4.04028871,3.38939458 L4.06577106,2.91834267 L3.88698359,2.85741164 L3.88657258,3.12758154 C3.88657258,3.23230675 3.87763321,3.33153125 3.85965171,3.43096731 L3.85965171,3.43096731 Z M3.71014839,2.84693912 L3.53023065,2.89052173 C3.53023065,2.89052173 3.52046926,3.19327281 3.52447657,3.12525431 C3.52940863,3.04602281 3.50474829,3.36199677 3.50474829,3.36199677 L3.68620731,3.4235625 C3.70439431,3.32740571 3.71045664,3.2289217 3.71045664,3.12758154 L3.71014839,2.84693912 L3.71014839,2.84693912 Z M3.11675892,4.35392439 C2.96499507,4.47568068 2.78887913,4.57448204 2.5989945,4.6371056 L2.55892144,4.45801491 C2.71500085,4.40723904 2.86018861,4.33297935 2.98739488,4.23639943 L3.11675892,4.35392439 L3.11675892,4.35392439 Z M3.20389213,4.50868499 C3.04966224,4.6277967 2.87447106,4.723213 2.68602495,4.78932741 L2.82052657,4.91891164 C2.97157116,4.86147144 3.11367638,4.785625 3.24396518,4.69539206 L3.20389213,4.50868499 L3.20389213,4.50868499 Z M2.96920787,3.47053017 L2.7974075,3.54563614 L2.48298814,3.18650269 L2.58625332,3.03364619 L2.96920787,3.47053017 L2.96920787,3.47053017 Z M3.10237372,3.35966954 L3.2054334,3.20607256 L2.89101404,2.84693912 L2.71962467,2.92236243 L3.10237372,3.35966954 L3.10237372,3.35966954 Z M0.950450664,2.40635273 L1.0032649,2.58279885 L1.48753235,2.58279885 L1.53973008,2.40635273 L0.950450664,2.40635273 L0.950450664,2.40635273 Z M3.212626,2.40635273 L3.15950351,2.58279885 L2.67554431,2.58279885 L2.62334658,2.40635273 L3.212626,2.40635273 L3.212626,2.40635273 Z M1.96871727,4.81259968 C1.96871727,4.7475431 2.02255901,4.69507471 2.08893643,4.69507471 C2.15510835,4.69507471 2.20864184,4.7475431 2.20864184,4.81259968 C2.20864184,4.87723312 2.15510835,4.92938416 2.08893643,4.92938416 C2.02255901,4.92938416 1.96871727,4.87723312 1.96871727,4.81259968 L1.96871727,4.81259968 Z M2.17247334,3.95840158 L2.35321309,3.90625054 L2.35321309,3.4347755 L2.17247334,3.38368229 L2.17247334,3.95840158 L2.17247334,3.95840158 Z M1.99728216,3.95840158 L1.81695342,3.90625054 L1.81695342,3.4347755 L1.99728216,3.38368229 L1.99728216,3.95840158 L1.99728216,3.95840158 Z" fill="#F2C500"></path>
                                        <path d="M0.0770635674,2.26661333 C0.0978193548,2.16834088 0.172416888,2.08858046 0.26859222,2.05874964 L0.2671537,1.47673132 L0.441522865,1.47673132 L0.44183112,2.06192313 C0.527834061,2.08974407 0.594005977,2.15522378 0.620618596,2.23953287 L1.09060361,2.24027335 L1.09060361,2.26661333 L0.459504364,2.26661333 C0.439981594,2.23085866 0.398983776,2.20420133 0.352026376,2.20420133 C0.305479981,2.20420133 0.264584915,2.23085866 0.244959393,2.26883477 L0.0770635674,2.26661333 L0.0770635674,2.26661333 Z M1.38344516,2.26661333 L1.38344516,2.24027335 L1.82003596,2.24027335 C1.82496803,2.2255695 1.83144137,2.21128879 1.83883947,2.19774856 L1.30021651,1.57976401 L1.43266309,1.46911494 L1.96450446,2.07705011 C1.97364934,2.07239565 1.98341072,2.06827011 1.99286385,2.06488506 L1.99337761,1.25501006 L2.16743852,1.25501006 L2.16743852,2.05991325 C2.17524763,2.06224048 2.18706404,2.06446193 2.19487315,2.06678915 L2.71428159,1.45790194 L2.84775569,1.56696426 L2.32629222,2.17331268 C2.33975266,2.19362302 2.34889753,2.2162606 2.35629564,2.24027335 L2.77932324,2.24027335 L2.77932324,2.26661333 L1.38303416,2.26661333 L1.38344516,2.26661333 L1.38344516,2.26661333 Z M3.69432467,2.26661333 C3.71384744,2.23085866 3.75443425,2.20420133 3.80139165,2.20420133 C3.8484518,2.20420133 3.88893586,2.23085866 3.90886964,2.26883477 L4.0760462,2.26661333 C4.05518767,2.16834088 3.98130939,2.08858046 3.88503131,2.05874964 L3.88616157,1.47704867 L3.71230617,1.47704867 L3.71158691,2.06224048 C3.62609772,2.09006142 3.55982306,2.15522378 3.53321044,2.23953287 L3.06291717,2.24027335 L3.06291717,2.26661333 L3.69432467,2.26661333 L3.69432467,2.26661333 Z M0.469676755,0.622744792 L1.11752448,1.37052514 L1.25017657,1.25987608 L0.598732543,0.515057651 C0.611679222,0.495064655 0.62092685,0.473379131 0.628735958,0.449895295 L1.10262552,0.449895295 L1.10262552,0.279796157 L0.628427704,0.279796157 C0.5920537,0.169570223 0.485808729,0.0905502874 0.360657495,0.0905502874 C0.205708349,0.0905502874 0.0797351044,0.213258621 0.0797351044,0.364634159 C0.0797351044,0.484592134 0.158545446,0.586990122 0.268797723,0.623908405 L0.267770209,1.20084914 L0.44183112,1.20084914 L0.44183112,0.627716595 C0.449229222,0.625495151 0.462586907,0.625495151 0.469676755,0.622744792 L0.469676755,0.622744792 Z M3.88811385,0.626552981 L3.88657258,1.20084914 L3.71230617,1.20084914 L3.71230617,0.624331537 C3.69894848,0.619994432 3.6857963,0.614387931 3.67336338,0.607935165 L3.0290092,1.35666756 L2.89574061,1.24749946 L3.55242495,0.484169001 C3.54708188,0.473379131 3.5413278,0.462060345 3.53742324,0.449895295 L3.0609649,0.449895295 L3.0609649,0.279796157 L3.53598472,0.279796157 C3.57256423,0.169570223 3.67778169,0.0905502874 3.80252192,0.0905502874 C3.95736831,0.0905502874 4.08344431,0.213258621 4.08344431,0.364634159 C4.08344431,0.487659842 4.00206518,0.59143301 3.88811385,0.626552981 L3.88811385,0.626552981 Z M2.1693908,0.624331537 L2.16784953,0.97796426 L1.99378861,0.97796426 L1.99419962,0.627293463 C1.90747742,0.600847701 1.83914772,0.534733297 1.81068558,0.449895295 L1.38570569,0.449895295 L1.38570569,0.279796157 L1.81068558,0.279796157 C1.84736784,0.169570223 1.95207154,0.0905502874 2.07691452,0.0905502874 C2.2017575,0.0905502874 2.30728321,0.169570223 2.34396546,0.279796157 L2.77737097,0.279796157 L2.77737097,0.449895295 L2.3428352,0.449895295 C2.31540057,0.531665589 2.2523112,0.596827945 2.1693908,0.624331537 L2.1693908,0.624331537 Z M0.26931148,1.05359914 L0.0886744782,1.10596175 L0.0886744782,1.57870618 L0.26931148,1.62990517 L0.26931148,1.05359914 L0.26931148,1.05359914 Z M0.444605408,1.05359914 L0.624831404,1.10596175 L0.624831404,1.57870618 L0.444605408,1.62990517 L0.444605408,1.05359914 L0.444605408,1.05359914 Z M3.7107649,1.05359914 L3.5305389,1.10596175 L3.5305389,1.57870618 L3.7107649,1.62990517 L3.7107649,1.05359914 L3.7107649,1.05359914 Z M3.88616157,1.05359914 L4.06690133,1.10596175 L4.06690133,1.57870618 L3.88616157,1.62990517 L3.88616157,1.05359914 L3.88616157,1.05359914 Z M1.1517407,1.14689978 L1.32374658,1.07179382 L1.63816594,1.43156196 L1.53490076,1.58505316 L1.1517407,1.14689978 L1.1517407,1.14689978 Z M1.01867761,1.25839511 L0.915823435,1.41241523 L1.23014004,1.77176024 L1.40152941,1.69612536 L1.01867761,1.25839511 L1.01867761,1.25839511 Z M2.99273795,1.13304221 L2.82052657,1.05931142 L2.50918975,1.42172414 L2.6135852,1.57415751 L2.99273795,1.13304221 L2.99273795,1.13304221 Z M3.12682856,1.24337392 L3.23112125,1.39612464 L2.91988719,1.75853736 L2.74808681,1.68438344 L3.12682856,1.24337392 L3.12682856,1.24337392 Z M0.950450664,2.239956 L1.0032649,2.06340409 L1.48753235,2.06340409 L1.53973008,2.239956 L0.950450664,2.239956 L0.950450664,2.239956 Z M0.24043833,0.364951509 C0.24043833,0.300318068 0.294280076,0.247532328 0.360657495,0.247532328 C0.426829412,0.247532328 0.480465655,0.300318068 0.480465655,0.364951509 C0.480465655,0.429690733 0.426829412,0.481947557 0.360657495,0.481947557 C0.294280076,0.481947557 0.24043833,0.429690733 0.24043833,0.364951509 L0.24043833,0.364951509 Z M1.53562002,0.450318427 L1.48249753,0.627293463 L0.99853833,0.627293463 L0.946237856,0.450318427 L1.53562002,0.450318427 L1.53562002,0.450318427 Z M1.53562002,0.279055675 L1.48249753,0.102609555 L0.99853833,0.102609555 L0.946237856,0.279055675 L1.53562002,0.279055675 L1.53562002,0.279055675 Z M3.212626,2.239956 L3.15950351,2.06340409 L2.67554431,2.06340409 L2.62334658,2.239956 L3.212626,2.239956 L3.212626,2.239956 Z M3.6824055,0.364951509 C3.6824055,0.300318068 3.73593899,0.247532328 3.80252192,0.247532328 C3.86889934,0.247532328 3.92243283,0.300318068 3.92243283,0.364951509 C3.92243283,0.429690733 3.86889934,0.481947557 3.80252192,0.481947557 C3.73593899,0.481947557 3.6824055,0.429690733 3.6824055,0.364951509 L3.6824055,0.364951509 Z M1.9567981,0.364951509 C1.9567981,0.300318068 2.0107426,0.247532328 2.07691452,0.247532328 C2.14329194,0.247532328 2.19682543,0.300318068 2.19682543,0.364951509 C2.19682543,0.429690733 2.14329194,0.481947557 2.07691452,0.481947557 C2.0107426,0.481947557 1.9567981,0.429690733 1.9567981,0.364951509 L1.9567981,0.364951509 Z M2.62745664,0.450318427 L2.68068188,0.627293463 L3.16453833,0.627293463 L3.21694156,0.450318427 L2.62745664,0.450318427 L2.62745664,0.450318427 Z M2.62745664,0.279055675 L2.68068188,0.102609555 L3.16453833,0.102609555 L3.21694156,0.279055675 L2.62745664,0.279055675 L2.62745664,0.279055675 Z M1.99532989,0.831243175 L1.81500114,0.8835 L1.81500114,1.35624443 L1.99532989,1.40744343 L1.99532989,0.831243175 L1.99532989,0.831243175 Z M2.16867154,0.831243175 L2.34889753,0.8835 L2.34889753,1.35624443 L2.16867154,1.40744343 L2.16867154,0.831243175 L2.16867154,0.831243175 Z" fill="#F2C500"></path>
                                        <path d="M1.80760304,2.32066846 C1.80760304,2.16897557 1.93367903,2.04616146 2.08893643,2.04616146 C2.24378283,2.04616146 2.36975607,2.16897557 2.36975607,2.32066846 C2.36975607,2.47172665 2.24378283,2.59411764 2.08893643,2.59411764 C1.93367903,2.59411764 1.80760304,2.47172665 1.80760304,2.32066846" fill="#058E6E"></path>
                                    </g>
                                    <path d="M1.23301642,10.8421624 L1.23301642,5.52298579 L1.80868135,5.52298579 L1.82297676,11.1144557 C1.59760092,11.0599972 1.38661909,10.9238996 1.23301642,10.8421624 Z M2.90457067,11.2647309 C2.71765048,11.2832501 2.54548194,11.2878802 2.31461036,11.2647309 L2.31461035,5.52298579 L2.90457066,5.52298579 L2.90457067,11.2647309 Z M3.39620427,11.1144557 L3.41059585,5.52298579 L3.98616459,5.52298579 L3.98616459,10.8558013 C3.8755654,10.9284462 3.62154243,11.0690905 3.39620427,11.1144557 Z M4.49254982,10.3851335 L4.4777982,5.52298579 L5.06775852,5.52298579 L5.05310729,9.12389566 C4.96914519,9.68137209 4.7381728,10.1703831 4.49254982,10.3851335 Z M0.785627225,10.3851335 C0.540004253,10.1703831 0.309031859,9.68137209 0.225069756,9.12389566 L0.210418528,5.52298579 L0.800378846,5.52298579 L0.785627225,10.3851335 Z" id="path968" fill="#C7A200"></path>
                                    <path d="M4.9948548,3.78591954 C5.84215928,3.78591954 6.52889426,4.60222089 6.52889426,5.60922485 C6.52889426,6.61622776 5.84215928,7.43253036 4.9948548,7.43253036 C4.14783655,7.43253036 3.46110057,6.61622776 3.46110057,5.60922485 C3.46110057,4.60222194 4.14783655,3.78591954 4.9948548,3.78591954 Z" id="path1153" fill="#E94B35"></path>
                                    <path d="M5.01481087,4.23132184 C5.6339124,4.23132184 6.13558738,4.82974424 6.13558738,5.56806197 C6.13558738,6.30668055 5.6339124,6.9055031 5.01481087,6.9055031 C4.39531484,6.9055031 3.89373814,6.30668055 3.89373814,5.56806197 C3.89373814,4.82944339 4.39531484,4.23132184 5.01481087,4.23132184 Z" id="path1155" fill="#346DA6"></path>
                                    <path d="M4.52767823,4.67672414 L4.52738713,4.67672414 C4.52738713,4.67672414 4.65980375,4.83438433 4.65980375,4.98031057 C4.65980375,5.12708976 4.60537559,5.24890838 4.60537559,5.24890838 C4.625089,5.19098594 4.67769012,5.14927776 4.74000392,5.14927776 C4.8191461,5.14927776 4.88290232,5.21626716 4.88290232,5.29936415 C4.88290232,5.32347179 4.86963187,5.36102005 4.85953476,5.3817138 L4.81337623,5.48593188 C4.79770177,5.44752961 4.76144825,5.42608872 4.71923271,5.42608872 C4.6626888,5.42608872 4.61758823,5.47387751 4.61758823,5.53340001 C4.61758823,5.54236005 4.61797268,5.55142368 4.62008864,5.55964104 L4.73683061,5.56008642 L4.73683061,5.66995757 L4.63297443,5.66995757 L4.71000105,5.83999148 L4.60787578,5.79561656 L4.52767581,5.89226108 L4.4503607,5.79561656 L4.34794672,5.83999148 L4.42526206,5.66995757 L4.32140587,5.66995757 L4.32140587,5.56008642 L4.43785936,5.55964104 C4.4399753,5.55142813 4.44103328,5.54236339 4.44103328,5.53340001 C4.44103328,5.47387751 4.39506726,5.42608872 4.3386195,5.42608872 C4.29640399,5.42608872 4.26015045,5.44752961 4.24476428,5.48593188 L4.1982213,5.3817138 C4.18822034,5.36102005 4.17494992,5.32347179 4.17494992,5.29936415 C4.17494992,5.21626716 4.23909078,5.14927776 4.31784832,5.14927776 C4.3801621,5.14927776 4.43314785,5.19098594 4.45276513,5.24890838 C4.45276513,5.24890838 4.39795231,5.12708976 4.39795231,4.98031057 C4.39795231,4.83438433 4.52767622,4.67672414 4.52767622,4.67672414 Z M5.60931687,4.67672414 L5.60933193,4.67672414 L5.60903077,4.67672414 C5.60903077,4.67672414 5.74146437,4.83438433 5.74146437,4.98031057 C5.74146437,5.12708976 5.68674074,5.24890838 5.68674074,5.24890838 C5.70626459,5.19098594 5.75944927,5.14927776 5.82167508,5.14927776 C5.90053971,5.14927776 5.96449624,5.21626716 5.96449624,5.29936415 C5.96449624,5.32347179 5.95141642,5.36102005 5.94131818,5.3817138 L5.8947693,5.48593188 C5.87938049,5.44752961 5.84321878,5.42608872 5.80099773,5.42608872 C5.74434959,5.42608872 5.69885883,5.47387751 5.69885883,5.53340001 C5.69885883,5.54236005 5.69953143,5.55142368 5.70174002,5.55964104 L5.81811222,5.56008642 L5.81811222,5.66995757 L5.7142426,5.66995757 L5.79166446,5.83999148 L5.68923745,5.79561656 L5.60931488,5.89226108 L5.53160491,5.79561656 L5.42956238,5.83999148 L5.50688785,5.66995757 L5.40301823,5.66995757 L5.40301823,5.56008642 L5.51948682,5.55964104 C5.52157492,5.55142813 5.52227765,5.54236339 5.52227765,5.53340001 C5.52227765,5.47387751 5.4767869,5.42608872 5.42023513,5.42608872 C5.37801388,5.42608872 5.34185236,5.44752961 5.32598268,5.48593188 L5.2798193,5.3817138 C5.26981643,5.36102005 5.25654385,5.32347179 5.25654385,5.29936415 C5.25654385,5.21626716 5.32030863,5.14927776 5.39946141,5.14927776 C5.46178359,5.14927776 5.51477652,5.19098594 5.53410763,5.24890838 C5.53410763,5.24890838 5.47967209,5.12708976 5.47967209,4.98031057 C5.47967209,4.83438433 5.60931687,4.67672414 5.60931687,4.67672414 Z M4.96012055,5.56752874 L4.9601406,5.56752874 L4.95973933,5.56752874 C4.95973933,5.56752874 5.09256441,5.72518941 5.09256441,5.87154302 C5.09256441,6.0178964 5.03778168,6.1397156 5.03778168,6.1397156 C5.05786811,6.08179288 5.11044076,6.04008452 5.17272054,6.04008452 C5.25143423,6.04008452 5.31553987,6.10707423 5.31553987,6.19017137 C5.31553987,6.21459868 5.30218302,6.25182755 5.29228127,6.2725214 L5.24576403,6.37674018 C5.22990596,6.33833772 5.19405699,6.31657717 5.15195995,6.31657717 C5.09544766,6.31657717 5.04989153,6.36468576 5.04989153,6.42420852 C5.04989153,6.4335962 5.05065397,6.44255852 5.05277075,6.45087614 L5.1690638,6.45121017 L5.1690638,6.56108183 L5.06497691,6.56108183 L5.14263401,6.7311165 L5.04027568,6.68642069 L4.96012055,6.78306566 L4.88284767,6.68642069 L4.78077846,6.7311165 L4.85814723,6.56108183 L4.75396364,6.56108183 L4.75396364,6.45121017 L4.87025729,6.45087614 C4.87246738,6.44255629 4.87352477,6.43359509 4.87352477,6.42420852 C4.87352477,6.36468576 4.82768011,6.31657717 4.77107111,6.31657717 C4.72887856,6.31657717 4.69312567,6.33833772 4.67736352,6.37674018 L4.63084609,6.2725214 C4.62085062,6.25182755 4.60758749,6.21459868 4.60758749,6.19017137 C4.60758749,6.10707423 4.67169292,6.04008452 4.75040743,6.04008452 C4.81297534,6.04008452 4.86564369,6.08179288 4.88534629,6.1397156 C4.88534629,6.1397156 4.83056336,6.0178964 4.83056336,5.87154302 C4.83056336,5.72518941 4.96012055,5.56752874 4.96012055,5.56752874 Z" id="path1157" fill="#F2C500"></path>
                                </g>
                                <g id="right" transform="translate(13.844402, 5.344828)">
                                    <path d="M1.13003472,2.1666765 C1.13003472,2.1666765 1.20988675,2.29600764 1.20988676,2.41503803 C1.20988676,2.53406842 1.13003471,2.65277259 1.13003471,2.65277259 L2.810519,2.65277259 C2.810519,2.65277259 2.66414998,2.55089606 2.66414998,2.41503803 C2.66414997,2.27918 2.81051904,2.1666765 2.81051904,2.1666765 L2.9891323,2.1666765 L2.9891323,1.55890805 L0.865275142,1.55890805 L0.865275142,2.1666765 L1.13003472,2.1666765 Z" id="path648" fill="#C7A200"></path>
                                    <path d="M1.13003472,12.4305706 C1.13003472,12.4305706 1.20988675,12.5599017 1.20988676,12.6789321 C1.20988676,12.7979625 1.13003471,12.9166667 1.13003471,12.9166667 L2.810519,12.9166667 C2.810519,12.9166667 2.66414998,12.8147901 2.66414998,12.6789321 C2.66414997,12.5430741 2.81051904,12.4305706 2.81051904,12.4305706 L2.9891323,12.4305706 L2.9891323,11.8228021 L0.865275142,11.8228021 L0.865275142,12.4305706 L1.13003472,12.4305706 Z" id="path648" fill="#C7A200" transform="translate(1.927204, 12.369734) scale(1, -1) translate(-1.927204, -12.369734) "></path>
                                    <rect id="Rectangle-1" fill="#FFFFFF" x="1.08159393" y="2.67241379" width="1.73055028" height="9.13074713"></rect>
                                    <path d="M3.01072279,12.7672018 C2.91557715,12.7217208 2.78677772,12.6939655 2.64472663,12.6939655 C2.502008,12.6939655 2.3699672,12.7220788 2.27482157,12.7678289 C2.17929461,12.814922 2.04725382,12.8439305 1.90310513,12.8439305 C1.75714533,12.8439305 1.62729722,12.8120576 1.53138886,12.7640683 C1.43700587,12.7204666 1.31058984,12.6939655 1.17216148,12.6939655 C1.02906165,12.6939655 0.901978396,12.7195713 0.806832731,12.7659486 C0.710924392,12.8136687 0.578216196,12.8439305 0.432637571,12.8439305 L0.432637571,13.9494312 C0.578216196,13.9494312 0.710924392,13.9181844 0.806832731,13.870822 C0.901978396,13.8247139 1.02906165,13.7985707 1.17216148,13.7985707 C1.3102085,13.7985707 1.43662453,13.8253401 1.53138886,13.8693005 C1.62691588,13.9169312 1.75714533,13.9494312 1.90310513,13.9494312 C2.04725382,13.9494312 2.17929461,13.9197965 2.27482157,13.8730602 C2.3699672,13.826683 2.502008,13.7985707 2.64472663,13.7985707 C2.78677772,13.7985707 2.91557715,13.826683 3.01072279,13.8724341 C3.10663109,13.9204227 3.23438183,13.9494312 3.38072318,13.9494312 L3.3824388,12.8439305 C3.23657452,12.8439305 3.10663109,12.8151911 3.01072279,12.7672018 Z" id="path656" fill="#197BE6"></path>
                                    <path d="M3.38243919,13.5128186 C3.23657452,13.5128186 3.10663109,13.4838314 3.01072279,13.4358781 C2.91557715,13.3901606 2.78677772,13.362069 2.64472663,13.362069 C2.502008,13.362069 2.3699672,13.3901606 2.27482157,13.4365037 C2.17929461,13.4832057 2.04725382,13.5128186 1.90310513,13.5128186 C1.75714533,13.5128186 1.62729722,13.4803424 1.53138886,13.4327468 C1.43700587,13.3888186 1.31058984,13.362069 1.17216148,13.362069 C1.02906165,13.362069 0.901978396,13.3881929 0.806832731,13.4342671 C0.710924392,13.4815947 0.578216196,13.5128186 0.432637571,13.5128186 L0.432637571,13.72673 C0.578216196,13.72673 0.710924392,13.6961328 0.806832731,13.6488054 C0.901978396,13.6021046 1.02906165,13.5762496 1.17216148,13.5762496 C1.3102085,13.5762496 1.43662453,13.6030889 1.53138886,13.6469265 C1.62691588,13.6946116 1.75714533,13.72673 1.90310513,13.72673 C2.04725382,13.72673 2.17929461,13.6971171 2.27482157,13.6504163 C2.3699672,13.6043412 2.502008,13.5762496 2.64472663,13.5762496 C2.78677772,13.5762496 2.91557715,13.6043412 3.01072279,13.6500577 C3.10663109,13.6977428 3.23438183,13.72673 3.38072318,13.72673 L3.3824388,13.5128186" id="path657" fill="#FFFFFF"></path>
                                    <path d="M1.79080805,5.79390697 C2.01826156,5.79565059 2.27194738,5.81721474 2.53399373,5.86140237 C2.87404853,5.91876516 3.18443228,6.00542289 3.43842,6.10720782 L2.79506823,6.3052625 L2.8367546,7.05793008 C2.8367546,7.05793008 3.26373023,7.05179531 3.60277807,6.95067534 C3.90059431,6.86185258 4.12654806,6.71639914 4.12241509,6.73881216 C4.12126159,6.74532034 4.45547279,5.93055016 4.46056522,5.90044328 C4.52283394,5.56208942 3.73909734,5.1462354 2.70936121,4.97259074 C2.38619963,4.91810762 2.07063026,4.8969368 1.79724455,4.89965565 C1.13814085,4.89965565 0.516475342,4.96469788 0.171595944,5.09415491 L0.167272856,6.04181987 C0.506002614,5.90041801 1.13055187,5.81585533 1.79080805,5.79390697 Z" id="path819" fill="#E94B35"></path>
                                    <path d="M3.30133607,7.97301629 C3.0327276,7.87439276 2.81090225,7.77166359 2.53600488,7.64723507 C1.71950398,7.27698053 1.08833231,6.69686927 1.08833231,6.69686927 L1.08833231,7.48067888 C1.01381936,7.62270135 1.56590289,8.04153458 2.31694157,8.41110529 C2.5576326,8.52898484 3.06597928,8.72163861 3.30590827,8.80784839 C3.49969215,8.87681805 3.90383185,9.07933339 3.90383185,9.07933339 C3.90383185,9.07933339 3.36339799,9.38661426 3.86391678,9.97486565 C3.90383187,9.62247305 4.27655483,9.47988302 4.26467167,9.51269922 L4.26466977,8.56935332 C4.30507289,8.44414327 3.88915202,8.19430857 3.30133607,7.97301629 Z" id="path825" fill="#E94B35"></path>
                                    <path d="M3.38243919,13.0674163 C3.23657452,13.0674163 3.10663109,13.0384291 3.01072279,12.9904758 C2.91557715,12.9447583 2.78677772,12.9166667 2.64472663,12.9166667 C2.502008,12.9166667 2.3699672,12.9447583 2.27482157,12.9911014 C2.17929461,13.0378034 2.04725382,13.0674163 1.90310513,13.0674163 C1.75714533,13.0674163 1.62729722,13.0349401 1.53138886,12.9873445 C1.43700587,12.9434163 1.31058984,12.9166667 1.17216148,12.9166667 C1.02906165,12.9166667 0.901978396,12.9427906 0.806832731,12.9888648 C0.710924392,13.0361924 0.578216196,13.0674163 0.432637571,13.0674163 L0.432637571,13.2813278 C0.578216196,13.2813278 0.710924392,13.2507306 0.806832731,13.2034031 C0.901978396,13.1567023 1.02906165,13.1308473 1.17216148,13.1308473 C1.3102085,13.1308473 1.43662453,13.1576866 1.53138886,13.2015242 C1.62691588,13.2492093 1.75714533,13.2813278 1.90310513,13.2813278 C2.04725382,13.2813278 2.17929461,13.2517148 2.27482157,13.205014 C2.3699672,13.1589389 2.502008,13.1308473 2.64472663,13.1308473 C2.78677772,13.1308473 2.91557715,13.1589389 3.01072279,13.2046554 C3.10663109,13.2523405 3.23438183,13.2813278 3.38072318,13.2813278 L3.3824388,13.0674163" id="path657" fill="#FFFFFF"></path>
                                    <g id="crown" transform="translate(0.865275, 0.000000)">
                                        <path d="M0.432940481,1.10929946 C0.408445409,1.0913052 0.334521356,1.00277692 0.334521356,1.00277692 L0.275347027,0.949459888 L0.221440444,0.855044357 C0.221440444,0.855044357 0.157349492,0.725862121 0.186761096,0.625115284 C0.216172625,0.524812741 0.265513924,0.489156981 0.310026375,0.45983276 C0.354451033,0.430397466 0.447690132,0.394852757 0.447690132,0.394852757 C0.447690132,0.394852757 0.521877587,0.353643205 0.546372659,0.347422973 C0.57086762,0.341536403 0.659804726,0.31210041 0.659804726,0.31210041 C0.659804726,0.31210041 0.684387592,0.294550214 0.708882646,0.28277619 C0.733728799,0.271001932 0.768056972,0.271001932 0.787986651,0.264781699 C0.807565079,0.258895154 0.856994116,0.238900827 0.886405629,0.236901458 C0.932147175,0.234568634 1.00475439,0.247120896 1.02960062,0.247120896 C1.05409567,0.247120896 1.13785272,0.253341362 1.17218088,0.253341362 C1.20650921,0.253341362 1.32968668,0.241233884 1.36436601,0.241233884 C1.39869417,0.241233884 1.4235404,0.235791399 1.46313619,0.241233884 C1.50238097,0.247121596 1.57130067,0.27644535 1.59123027,0.288663668 C1.61089647,0.300437926 1.72924524,0.353643905 1.77340648,0.371305174 C1.81783112,0.388521917 1.92634679,0.412403419 1.97577587,0.441838946 C2.02476579,0.471607484 2.05487983,0.521369859 2.07937489,0.56280158 C2.10422112,0.604011365 2.1087864,0.648997485 2.11861968,0.678766023 C2.12810161,0.708201317 2.12845279,0.771626245 2.11896792,0.801061562 C2.10904704,0.830386016 2.07419211,0.891145133 2.07419211,0.891145133 L2.01984639,1.0031106 L1.9509267,1.0736444 C1.9509267,1.0736444 1.90149763,1.13318168 1.8623408,1.12696143 C1.82274484,1.12185172 1.77340649,1.25629605 1.17218092,1.25629605 C0.570955345,1.2562961 0.474676094,1.12696141 0.474676094,1.12696141 C0.475030202,1.12696073 0.457435459,1.12696075 0.432940481,1.10929946 Z" id="path556" fill="#CA4638"></path>
                                        <path d="M0.640095911,0.716744949 L0.616392175,0.566879146 C0.485424296,0.396053802 0.364913894,0.283974259 0.324478178,0.307984427 C0.334139142,0.276397409 0.345592387,0.252780843 0.370889594,0.238217547 C0.487316568,0.169828295 0.727640277,0.333962405 0.908306275,0.60358299 C0.924540392,0.62828175 0.940176742,0.652882321 0.953921027,0.677581081 L1.08540961,0.677581081 C1.08540961,0.677581081 0.982949308,0.427749979 1.03705081,0.304867692 C1.05469538,0.2647911 1.11876052,0.271288799 1.11876052,0.271288799 L1.11876052,0.134585584 L1.04325624,0.13458558 L1.04325624,0.0886645262 L1.11876052,0.0886645262 L1.11876052,0.0053471481 L1.17396247,0.0053471481 L1.17396247,0.0886645262 L1.24554591,0.0886645262 L1.24554591,0.13458558 L1.17206427,0.134585581 C1.17206427,0.134585581 1.17085795,0.250019123 1.17396247,0.271288799 C1.18192037,0.271288799 1.24554591,0.271288799 1.26304424,0.307281722 C1.30648149,0.381204452 1.22009393,0.677581081 1.22009393,0.677581081 L1.34662559,0.677581081 C1.34662559,0.677581081 1.37630503,0.628576963 1.39263853,0.60358299 C1.57290627,0.333962405 1.81352878,0.169828295 1.92965703,0.238217547 C1.95485453,0.252780843 1.96640756,0.276397409 1.97636709,0.307984427 C1.93563262,0.284367861 1.81542105,0.396053802 1.68375606,0.566879146 L1.66621301,0.679209798 L1.68472578,0.714519178 C1.67706303,0.725336107 1.6745098,0.737848037 1.6745098,0.751248076 C1.6745098,0.795968649 1.72097481,0.83213251 1.77795091,0.83213251 C1.81419953,0.83213251 1.84563457,0.817602351 1.86429916,0.795968649 L1.88630365,0.773204672 L1.88591401,0.801377036 C1.88591401,0.829226505 1.90055107,0.854331427 1.93385272,0.858851882 C1.93385272,0.858851882 1.9714766,0.861111764 2.02275501,0.828096408 C2.07324755,0.795403612 2.10104798,0.768038451 2.10104798,0.768038451 L2.10419183,0.801619201 C2.10419183,0.801619201 2.05458337,0.868780701 2.00919891,0.890172394 C1.98464037,0.902119286 1.91577729,1.11830071 1.88591399,1.11402227 C1.88336334,1.11370134 1.54340226,1.02968423 1.16232182,1.029286 C0.798089735,1.02890538 0.453399912,1.13112125 0.438037696,1.13305424 C0.408076056,1.13733302 0.33999615,0.902119108 0.315142807,0.890172394 C0.26975833,0.868780701 0.216318786,0.801619201 0.216318786,0.801619201 L0.2232935,0.768038451 C0.2232935,0.768038451 0.251486853,0.795403612 0.301586492,0.828096408 C0.35247199,0.861112098 0.390488821,0.858851882 0.390488821,0.858851882 C0.423790388,0.854331272 0.438427343,0.829226505 0.438427343,0.801377036 L0.438037693,0.773204672 L0.45994398,0.795968649 C0.478608571,0.817602351 0.510141849,0.83213251 0.546292242,0.83213251 C0.598206915,0.83213251 0.641343841,0.802211613 0.648718829,0.763146265 L0.640095911,0.716744949 Z" id="Combined-Shape" fill="#C7A200"></path>
                                    </g>
                                    <g id="group" transform="translate(0.432638, 12.916667)"></g>
                                </g>
                                <g id="left" transform="translate(0.000000, 5.344828)">
                                    <path d="M1.77899108,2.1666765 C1.77899108,2.1666765 1.85884311,2.29600764 1.85884312,2.41503803 C1.85884312,2.53406842 1.77899107,2.65277259 1.77899107,2.65277259 L3.45947536,2.65277259 C3.45947536,2.65277259 3.31310633,2.55089606 3.31310633,2.41503803 C3.31310632,2.27918 3.45947539,2.1666765 3.45947539,2.1666765 L3.63808866,2.1666765 L3.63808866,1.55890805 L1.5142315,1.55890805 L1.5142315,2.1666765 L1.77899108,2.1666765 Z" id="path648" fill="#C7A200"></path>
                                    <path d="M1.77899108,12.4305706 C1.77899108,12.4305706 1.85884311,12.5599017 1.85884312,12.6789321 C1.85884312,12.7979625 1.77899107,12.9166667 1.77899107,12.9166667 L3.45947536,12.9166667 C3.45947536,12.9166667 3.31310633,12.8147901 3.31310633,12.6789321 C3.31310632,12.5430741 3.45947539,12.4305706 3.45947539,12.4305706 L3.63808866,12.4305706 L3.63808866,11.8228021 L1.5142315,11.8228021 L1.5142315,12.4305706 L1.77899108,12.4305706 Z" id="path648" fill="#C7A200" transform="translate(2.576160, 12.369734) scale(1, -1) translate(-2.576160, -12.369734) "></path>
                                    <rect id="Rectangle-1" fill="#FFFFFF" x="1.73055028" y="2.67241379" width="1.73055028" height="9.13074713"></rect>
                                    <path d="M3.65967914,12.7672018 C3.56453351,12.7217208 3.43573408,12.6939655 3.29368299,12.6939655 C3.15096435,12.6939655 3.01892356,12.7220788 2.92377793,12.7678289 C2.82825097,12.814922 2.69621018,12.8439305 2.55206148,12.8439305 C2.40610168,12.8439305 2.27625357,12.8120576 2.18034521,12.7640683 C2.08596223,12.7204666 1.95954619,12.6939655 1.82111784,12.6939655 C1.67801801,12.6939655 1.55093475,12.7195713 1.45578909,12.7659486 C1.35988075,12.8136687 1.22717255,12.8439305 1.08159393,12.8439305 L1.08159393,13.9494312 C1.22717255,13.9494312 1.35988075,13.9181844 1.45578909,13.870822 C1.55093475,13.8247139 1.67801801,13.7985707 1.82111784,13.7985707 C1.95916486,13.7985707 2.08558089,13.8253401 2.18034521,13.8693005 C2.27587224,13.9169312 2.40610168,13.9494312 2.55206148,13.9494312 C2.69621018,13.9494312 2.82825097,13.9197965 2.92377793,13.8730602 C3.01892356,13.826683 3.15096435,13.7985707 3.29368299,13.7985707 C3.43573408,13.7985707 3.56453351,13.826683 3.65967914,13.8724341 C3.75558745,13.9204227 3.88333819,13.9494312 4.02967953,13.9494312 L4.03139516,12.8439305 C3.88553088,12.8439305 3.75558745,12.8151911 3.65967914,12.7672018 Z" id="path656" fill="#197BE6"></path>
                                    <path d="M4.03139555,13.5128186 C3.88553088,13.5128186 3.75558745,13.4838314 3.65967914,13.4358781 C3.56453351,13.3901606 3.43573408,13.362069 3.29368299,13.362069 C3.15096435,13.362069 3.01892356,13.3901606 2.92377793,13.4365037 C2.82825097,13.4832057 2.69621018,13.5128186 2.55206148,13.5128186 C2.40610168,13.5128186 2.27625357,13.4803424 2.18034521,13.4327468 C2.08596223,13.3888186 1.95954619,13.362069 1.82111784,13.362069 C1.67801801,13.362069 1.55093475,13.3881929 1.45578909,13.4342671 C1.35988075,13.4815947 1.22717255,13.5128186 1.08159393,13.5128186 L1.08159393,13.72673 C1.22717255,13.72673 1.35988075,13.6961328 1.45578909,13.6488054 C1.55093475,13.6021046 1.67801801,13.5762496 1.82111784,13.5762496 C1.95916486,13.5762496 2.08558089,13.6030889 2.18034521,13.6469265 C2.27587224,13.6946116 2.40610168,13.72673 2.55206148,13.72673 C2.69621018,13.72673 2.82825097,13.6971171 2.92377793,13.6504163 C3.01892356,13.6043412 3.15096435,13.5762496 3.29368299,13.5762496 C3.43573408,13.5762496 3.56453351,13.6043412 3.65967914,13.6500577 C3.75558745,13.6977428 3.88333819,13.72673 4.02967953,13.72673 L4.03139516,13.5128186" id="path657" fill="#FFFFFF"></path>
                                    <path d="M1.70219658,5.79390697 C1.92965009,5.79565059 2.18333591,5.81721474 2.44538226,5.86140237 C2.78543706,5.91876516 3.09582081,6.00542289 3.34980853,6.10720782 L2.70645676,6.3052625 L2.74814313,7.05793008 C2.74814313,7.05793008 3.17511875,7.05179531 3.5141666,6.95067534 C3.81198284,6.86185258 4.03793659,6.71639914 4.03380362,6.73881216 C4.03265012,6.74532034 4.36686132,5.93055016 4.37195375,5.90044328 C4.43422247,5.56208942 3.65048586,5.1462354 2.62074974,4.97259074 C2.29758816,4.91810762 1.98201879,4.8969368 1.70863308,4.89965565 C1.04952938,4.89965565 0.427863871,4.96469788 0.0829844736,5.09415491 L0.0786613859,6.04181987 C0.417391143,5.90041801 1.0419404,5.81585533 1.70219658,5.79390697 Z" id="path819" fill="#E94B35" transform="translate(2.227042, 5.978678) scale(-1, 1) translate(-2.227042, -5.978678) "></path>
                                    <path d="M2.49505868,7.97301629 C2.22645022,7.87439276 2.00462486,7.77166359 1.72972749,7.64723507 C0.913226589,7.27698053 0.282054925,6.69686927 0.282054925,6.69686927 L0.282054925,7.48067888 C0.207541972,7.62270135 0.759625499,8.04153458 1.51066418,8.41110529 C1.75135522,8.52898484 2.2597019,8.72163861 2.49963088,8.80784839 C2.69341476,8.87681805 3.09755447,9.07933339 3.09755447,9.07933339 C3.09755447,9.07933339 2.5571206,9.38661426 3.05763939,9.97486565 C3.09755448,9.62247305 3.47027744,9.47988302 3.45839428,9.51269922 L3.45839238,8.56935332 C3.4987955,8.44414327 3.08287463,8.19430857 2.49505868,7.97301629 Z" id="path825" fill="#E94B35" transform="translate(1.868209, 8.335867) scale(-1, 1) translate(-1.868209, -8.335867) "></path>
                                    <path d="M4.03139555,13.0674163 C3.88553088,13.0674163 3.75558745,13.0384291 3.65967914,12.9904758 C3.56453351,12.9447583 3.43573408,12.9166667 3.29368299,12.9166667 C3.15096435,12.9166667 3.01892356,12.9447583 2.92377793,12.9911014 C2.82825097,13.0378034 2.69621018,13.0674163 2.55206148,13.0674163 C2.40610168,13.0674163 2.27625357,13.0349401 2.18034521,12.9873445 C2.08596223,12.9434163 1.95954619,12.9166667 1.82111784,12.9166667 C1.67801801,12.9166667 1.55093475,12.9427906 1.45578909,12.9888648 C1.35988075,13.0361924 1.22717255,13.0674163 1.08159393,13.0674163 L1.08159393,13.2813278 C1.22717255,13.2813278 1.35988075,13.2507306 1.45578909,13.2034031 C1.55093475,13.1567023 1.67801801,13.1308473 1.82111784,13.1308473 C1.95916486,13.1308473 2.08558089,13.1576866 2.18034521,13.2015242 C2.27587224,13.2492093 2.40610168,13.2813278 2.55206148,13.2813278 C2.69621018,13.2813278 2.82825097,13.2517148 2.92377793,13.205014 C3.01892356,13.1589389 3.15096435,13.1308473 3.29368299,13.1308473 C3.43573408,13.1308473 3.56453351,13.1589389 3.65967914,13.2046554 C3.75558745,13.2523405 3.88333819,13.2813278 4.02967953,13.2813278 L4.03139516,13.0674163" id="path657" fill="#FFFFFF"></path>
                                    <g id="crown" transform="translate(1.406072, 0.000000)">
                                        <path d="M0.432940481,1.10929946 C0.408445409,1.0913052 0.334521356,1.00277692 0.334521356,1.00277692 L0.275347027,0.949459888 L0.221440444,0.855044357 C0.221440444,0.855044357 0.157349492,0.725862121 0.186761096,0.625115284 C0.216172625,0.524812741 0.265513924,0.489156981 0.310026375,0.45983276 C0.354451033,0.430397466 0.447690132,0.394852757 0.447690132,0.394852757 C0.447690132,0.394852757 0.521877587,0.353643205 0.546372659,0.347422973 C0.57086762,0.341536403 0.659804726,0.31210041 0.659804726,0.31210041 C0.659804726,0.31210041 0.684387592,0.294550214 0.708882646,0.28277619 C0.733728799,0.271001932 0.768056972,0.271001932 0.787986651,0.264781699 C0.807565079,0.258895154 0.856994116,0.238900827 0.886405629,0.236901458 C0.932147175,0.234568634 1.00475439,0.247120896 1.02960062,0.247120896 C1.05409567,0.247120896 1.13785272,0.253341362 1.17218088,0.253341362 C1.20650921,0.253341362 1.32968668,0.241233884 1.36436601,0.241233884 C1.39869417,0.241233884 1.4235404,0.235791399 1.46313619,0.241233884 C1.50238097,0.247121596 1.57130067,0.27644535 1.59123027,0.288663668 C1.61089647,0.300437926 1.72924524,0.353643905 1.77340648,0.371305174 C1.81783112,0.388521917 1.92634679,0.412403419 1.97577587,0.441838946 C2.02476579,0.471607484 2.05487983,0.521369859 2.07937489,0.56280158 C2.10422112,0.604011365 2.1087864,0.648997485 2.11861968,0.678766023 C2.12810161,0.708201317 2.12845279,0.771626245 2.11896792,0.801061562 C2.10904704,0.830386016 2.07419211,0.891145133 2.07419211,0.891145133 L2.01984639,1.0031106 L1.9509267,1.0736444 C1.9509267,1.0736444 1.90149763,1.13318168 1.8623408,1.12696143 C1.82274484,1.12185172 1.77340649,1.25629605 1.17218092,1.25629605 C0.570955345,1.2562961 0.474676094,1.12696141 0.474676094,1.12696141 C0.475030202,1.12696073 0.457435459,1.12696075 0.432940481,1.10929946 Z" id="path556" fill="#CA4638"></path>
                                        <path d="M0.640095911,0.716744949 L0.616392175,0.566879146 C0.485424296,0.396053802 0.364913894,0.283974259 0.324478178,0.307984427 C0.334139142,0.276397409 0.345592387,0.252780843 0.370889594,0.238217547 C0.487316568,0.169828295 0.727640277,0.333962405 0.908306275,0.60358299 C0.924540392,0.62828175 0.940176742,0.652882321 0.953921027,0.677581081 L1.08540961,0.677581081 C1.08540961,0.677581081 0.982949308,0.427749979 1.03705081,0.304867692 C1.05469538,0.2647911 1.11876052,0.271288799 1.11876052,0.271288799 L1.11876052,0.134585584 L1.04325624,0.13458558 L1.04325624,0.0886645262 L1.11876052,0.0886645262 L1.11876052,0.0053471481 L1.17396247,0.0053471481 L1.17396247,0.0886645262 L1.24554591,0.0886645262 L1.24554591,0.13458558 L1.17206427,0.134585581 C1.17206427,0.134585581 1.17085795,0.250019123 1.17396247,0.271288799 C1.18192037,0.271288799 1.24554591,0.271288799 1.26304424,0.307281722 C1.30648149,0.381204452 1.22009393,0.677581081 1.22009393,0.677581081 L1.34662559,0.677581081 C1.34662559,0.677581081 1.37630503,0.628576963 1.39263853,0.60358299 C1.57290627,0.333962405 1.81352878,0.169828295 1.92965703,0.238217547 C1.95485453,0.252780843 1.96640756,0.276397409 1.97636709,0.307984427 C1.93563262,0.284367861 1.81542105,0.396053802 1.68375606,0.566879146 L1.66621301,0.679209798 L1.68472578,0.714519178 C1.67706303,0.725336107 1.6745098,0.737848037 1.6745098,0.751248076 C1.6745098,0.795968649 1.72097481,0.83213251 1.77795091,0.83213251 C1.81419953,0.83213251 1.84563457,0.817602351 1.86429916,0.795968649 L1.88630365,0.773204672 L1.88591401,0.801377036 C1.88591401,0.829226505 1.90055107,0.854331427 1.93385272,0.858851882 C1.93385272,0.858851882 1.9714766,0.861111764 2.02275501,0.828096408 C2.07324755,0.795403612 2.10104798,0.768038451 2.10104798,0.768038451 L2.10419183,0.801619201 C2.10419183,0.801619201 2.05458337,0.868780701 2.00919891,0.890172394 C1.98464037,0.902119286 1.91577729,1.11830071 1.88591399,1.11402227 C1.88336334,1.11370134 1.54340226,1.02968423 1.16232182,1.029286 C0.798089735,1.02890538 0.453399912,1.13112125 0.438037696,1.13305424 C0.408076056,1.13733302 0.33999615,0.902119108 0.315142807,0.890172394 C0.26975833,0.868780701 0.216318786,0.801619201 0.216318786,0.801619201 L0.2232935,0.768038451 C0.2232935,0.768038451 0.251486853,0.795403612 0.301586492,0.828096408 C0.35247199,0.861112098 0.390488821,0.858851882 0.390488821,0.858851882 C0.423790388,0.854331272 0.438427343,0.829226505 0.438427343,0.801377036 L0.438037693,0.773204672 L0.45994398,0.795968649 C0.478608571,0.817602351 0.510141849,0.83213251 0.546292242,0.83213251 C0.598206915,0.83213251 0.641343841,0.802211613 0.648718829,0.763146265 L0.640095911,0.716744949 Z" id="Combined-Shape" fill="#C7A200"></path>
                                    </g>
                                </g>
                                <g id="crown" transform="translate(4.542694, 0.000000)">
                                    <path d="M6.33384701,2.69620148 C6.54486635,2.79388734 6.82818512,2.86606422 7.13830306,2.9085793 C7.37448238,2.94100948 7.59890099,2.94763406 7.79411028,2.93230882 C8.055161,2.92706904 8.43275812,3.00547441 8.81045204,3.17602924 C9.12307651,3.31830648 9.38403042,3.49123425 9.55735726,3.65862521 L9.40735906,3.79566227 L9.36398012,4.18472516 L8.95244961,4.66801323 L8.74682857,4.84697213 L8.25972128,5.24691086 L8.01091366,5.2677729 L7.9352393,5.48855499 C7.9352393,5.48855499 8.81045196,6.64650928 4.87625637,6.57637147 C0.94206078,6.50623371 1.62260016,5.48855499 1.62260016,5.48855499 L1.54682998,5.2677729 L1.29763658,5.24691086 L0.810625294,4.84697213 L0.604908249,4.66801323 L0.193570551,4.18472516 L0.150769175,3.79566227 L0,3.65862521 C0.174097815,3.49123425 0.43514834,3.31830648 0.74700144,3.17602924 C1.12469555,3.00547441 1.50238967,2.92706864 1.76324739,2.93230882 C1.95845668,2.94763406 2.18297168,2.94101011 2.419151,2.9085793 C2.72936535,2.86606422 3.01297332,2.79388734 3.22360664,2.69620148 C3.59272116,2.54631094 4.12716132,2.44971264 4.7629174,2.44971264 C5.39905891,2.44971264 5.9651187,2.54631094 6.33384701,2.69620148 Z" id="path833" fill="#E94B35"></path>
                                    <ellipse id="Oval-1" fill="#346DA6" cx="4.65085389" cy="0.779454023" rx="1" ry="1"></ellipse>
                                    <path d="M2.38099768,3.4801263 C2.36277248,3.54659551 2.35570344,3.61727874 2.36275701,3.68640714 C2.36275701,3.68640714 2.34194351,3.66467852 2.27561983,3.65127349 C2.20929592,3.63797678 2.16318786,3.65667878 2.16318786,3.65667878 C2.16318786,3.65667878 2.21327926,3.74889022 2.23369445,3.78088848 C2.25450776,3.81256266 2.29155335,3.91698981 2.34602662,4.00357998 C2.35860304,4.02368166 2.3717591,4.04242007 2.38454791,4.05934486 C2.36525076,4.0526182 2.34485313,4.04617948 2.3241662,4.04067387 C2.25027339,4.02105826 2.12026359,4.02032399 2.08099215,4.01958975 C2.04172049,4.01843566 1.96328053,4.01665203 1.96328053,4.01665203 C1.96328053,4.01665203 1.96979185,4.03479908 1.9921142,4.07434494 C2.01898432,4.12207263 2.04285726,4.15196794 2.04285726,4.15196794 C1.91274413,4.18238794 1.80195679,4.26924192 1.73188791,4.36994226 C1.83358076,4.44127177 1.96865443,4.48459387 2.10135138,4.4708526 C2.10135138,4.4708526 2.08977661,4.50683182 2.08140551,4.56116812 C2.07448102,4.60595873 2.07489419,4.62442048 2.07489419,4.62442048 C2.07489419,4.62442048 2.14796003,4.59704267 2.18454453,4.58340608 C2.22112923,4.56966461 2.34307797,4.52676211 2.40580919,4.4838596 C2.43435293,4.4640214 2.4650164,4.44825302 2.49286045,4.43612599 L2.49286045,4.43612599 C2.52448587,4.49482222 2.53716423,4.56063495 2.53716423,4.63116574 C2.53716423,4.86743672 2.33397911,5.05852851 2.08323818,5.05852851 C1.92575755,5.05852851 1.78669533,4.9830032 1.70542144,4.86840642 L1.61001709,4.74770156 L1.61069862,4.89574669 C1.61069862,5.04447048 1.54764784,5.17787588 1.40176403,5.20143526 C1.40176403,5.20143526 1.23444087,5.21200287 1.01235048,5.03836259 C0.94323574,4.98432117 0.883771891,4.93317246 0.834658679,4.88836499 C0.851183142,4.88546184 0.863611889,4.88651909 0.866899004,4.89802721 C0.906935999,4.90598339 0.972997117,4.91600269 1.0319087,4.91983324 C1.11179223,4.92533383 1.24515366,4.903528 1.28576261,4.89802721 C1.3257996,4.89213376 1.40673168,4.88034661 1.40673168,4.88034661 C1.40673168,4.88034661 1.3965318,4.86512163 1.36516951,4.83251092 C1.32761075,4.79410475 1.28642989,4.75913623 1.28642989,4.75913623 C1.40101224,4.71444372 1.48804507,4.62712138 1.53389685,4.53429827 C1.42665486,4.49137338 1.28890831,4.47163028 1.17146642,4.48754283 C1.17146642,4.48754283 1.17537392,4.45670017 1.17289529,4.40650687 C1.17032112,4.36456463 1.1678425,4.34757159 1.1678425,4.34757159 C1.1678425,4.34757159 1.10187671,4.39403215 1.03781721,4.42487504 C0.973662795,4.4560126 0.850501045,4.52427939 0.80226598,4.58655429 C0.753935582,4.64932032 0.722001348,4.74351856 0.722001348,4.74351856 C0.722001348,4.74351856 0.786155962,4.52427939 0.727339707,4.3725208 C0.668428119,4.22115533 0.539928206,4.19483096 0.539928206,4.19483096 L0.518574968,4.29944122 C0.4856506,4.25712578 0.439017093,4.22557664 0.385766093,4.20781665 L0.385766093,4.20781665 L0.650469745,3.7177672 C0.49017521,3.57416226 0.387799035,3.36379256 0.387799035,3.1290986 C0.387799035,3.01388908 0.412539804,2.90407341 0.45671329,2.80565665 C0.622600682,2.41952092 1.1951489,2.13373587 1.87955278,2.13373587 C2.01100869,2.13373587 2.13823698,2.14420098 2.25938884,2.16389097 C2.20560788,2.26588367 2.17369431,2.37528527 2.16757915,2.48848064 C2.16465162,2.51908347 2.16318786,2.54999252 2.16318786,2.58090159 C2.16318786,2.86122448 2.28575624,3.11369877 2.47936735,3.28925767 L2.47055098,3.30435748 C2.46874835,3.30308712 2.46694148,3.30183082 2.46513066,3.30058873 C2.43759133,3.33919602 2.414503,3.38318166 2.39704821,3.4302459 L2.37221767,3.47277324 L2.38099768,3.4801263 L2.38099768,3.4801263 Z M2.59837485,3.42882949 C2.64243648,3.48717319 2.67650375,3.55467691 2.6934798,3.62619371 C2.6934798,3.62619371 2.70582855,3.59873573 2.76358806,3.56252127 C2.8218455,3.52706355 2.87114025,3.52814456 2.87114025,3.52814456 C2.87114025,3.52814456 2.85450942,3.6322474 2.84634339,3.66965094 C2.83787881,3.7061897 2.83708153,3.81796773 2.81487448,3.91861132 C2.80989895,3.94105962 2.8040217,3.96250222 2.79789255,3.98227093 C2.8637152,3.94472323 2.96275589,3.90964377 2.99506749,3.89789553 C3.03170696,3.88425896 3.10498635,3.85646155 3.10498635,3.85646155 C3.10498635,3.85646155 3.10529967,3.87534287 3.09836261,3.92013351 C3.08997893,3.9741551 3.07828327,4.01002965 3.07828327,4.01002965 C3.21138649,3.99597349 3.34687019,4.0410788 3.4487161,4.11282788 C3.37864541,4.21310865 3.26686352,4.2984941 3.1369688,4.32891409 C3.1369688,4.32891409 3.16046362,4.35880941 3.18778814,4.40653709 C3.21014447,4.44650253 3.21676867,4.46423001 3.21676867,4.46423001 C3.21676867,4.46423001 3.13810729,4.46244526 3.0987766,4.46171275 C3.05944593,4.46097915 2.9292409,4.46055869 2.85523701,4.44062863 C2.80447632,4.42692104 2.75517454,4.40792499 2.7195715,4.39286264 L2.7195715,4.39286264 L2.72193091,4.39518543 C2.71968898,4.41302455 2.71832489,4.43144535 2.71832489,4.44986616 C2.71832489,4.69748075 2.93076785,4.8974918 3.19330029,4.8974918 C3.42737727,4.8974918 3.63455758,4.74459913 3.66505966,4.51860492 C3.67158913,4.52170775 3.66983444,4.35010302 3.68640154,4.34835791 C3.70608659,4.34632175 3.74487201,4.51317569 3.75140107,4.50842492 C3.81347734,4.68788245 3.99278692,4.81779761 4.20435262,4.81779761 C4.46698249,4.81779761 4.6797178,4.61671992 4.6797178,4.36959028 C4.6797178,4.31413395 4.67640475,4.26148918 4.65681674,4.21330436 L4.67261216,4.21051667 C4.66325739,4.17614725 4.65407803,4.1421794 4.64524159,4.11034062 C4.56808686,4.13249264 4.48730698,4.15279356 4.5033638,4.17064355 C4.5033638,4.17064355 4.42013182,4.23016079 4.32793944,4.27142107 C4.25810224,4.30327921 4.12840474,4.32482238 4.08951402,4.33258142 C4.05034595,4.33961021 3.97256449,4.35375926 3.97256449,4.35375926 C3.97256449,4.35375926 3.97570527,4.33513734 3.9907628,4.29360322 C4.00905347,4.24211906 4.02725178,4.20962193 4.02725178,4.20962193 C3.89210396,4.20085877 3.76545485,4.13613819 3.67741935,4.05087915 C3.76545485,3.96488964 3.89247345,3.89861706 4.02725178,3.89058454 C4.02725178,3.89058454 4.00905347,3.85772229 3.9907628,3.80651198 C3.97570507,3.76433886 3.97256449,3.74599081 3.97256449,3.74599081 C3.97256449,3.74599081 4.05034595,3.7605048 4.08951402,3.7678989 C4.12840474,3.77501896 4.25810224,3.79683579 4.32793944,3.82842007 C4.42013182,3.86958907 4.50197798,3.93011045 4.50197798,3.93011045 C4.48862412,3.94454342 4.54253215,3.96132355 4.60565689,3.9795673 C4.5917548,3.940658 4.58009219,3.91971823 4.57183394,3.92876322 C4.57183394,3.92876322 4.51046942,3.85593351 4.4660887,3.75915055 C4.42120273,3.66304641 4.399063,3.55152291 4.3824834,3.51593234 C4.36560049,3.48043877 4.32637571,3.37880681 4.32637571,3.37880681 C4.32637571,3.37880681 4.3824834,3.36891487 4.4547661,3.39422619 C4.52735211,3.41953729 4.54666122,3.44484821 4.54666122,3.44484821 C4.54780678,3.42899117 4.54979999,3.41318394 4.5525857,3.39748647 L4.5525857,3.39748647 L4.11005693,2.97678059 C4.18087851,2.7890188 4.22990908,2.48235128 4.23654538,2.13498709 C4.23693828,2.11498706 4.24070586,2.09389249 4.24070586,2.07429045 C4.24070586,2.05737494 4.23951686,2.04055895 4.23990974,2.02334496 C4.24081423,1.96519755 4.2432213,1.90830191 4.24697222,1.85303729 C4.04817385,1.74861383 3.79866867,1.68658152 3.52812684,1.68658152 C2.87800712,1.68658152 2.36606946,2.0495323 2.34499086,2.48878667 C2.34128205,2.51908347 2.33952595,2.54958449 2.33952595,2.58090159 C2.33952595,2.8579602 2.4895161,3.1011515 2.70830453,3.24110893 L2.59837485,3.42882949 L2.59837485,3.42882949 Z M4.26435231,1.67446515 C4.26914012,1.6371085 4.27455021,1.60084791 4.28052074,1.56583117 C4.31558495,1.41140287 4.47079809,1.29627816 4.64384071,1.29627816 C4.81748339,1.29627816 4.96655569,1.41140287 5.0020159,1.56583117 C5.01042213,1.6153429 5.01768179,1.66734136 5.02367674,1.72140884 C5.25267159,1.59438413 5.54025238,1.51897931 5.85281038,1.51897931 C6.35498652,1.51897931 6.78372203,1.71950215 7.01957829,2.01060997 C7.17176516,1.98041333 7.33324335,1.96438161 7.50074538,1.96438161 C8.24850251,1.96438161 8.87757398,2.28670427 9.07844908,2.72963044 C9.13343106,2.85094662 9.16405036,2.98691848 9.16405036,3.1290986 C9.16405036,3.36491228 9.07911205,3.58057425 8.94042452,3.74789281 L9.19215164,4.24410511 C9.19770487,4.2438213 9.20328247,4.24367806 9.20887777,4.24367806 C9.36864499,4.24367806 9.49256881,4.36970123 9.49256881,4.52558504 C9.49256881,4.52558504 9.28418531,4.50829755 9.16092797,4.57656434 C9.03776635,4.64404513 8.93376517,4.84737194 8.93376517,4.84737194 C8.93207781,4.84380986 8.91921509,4.8515981 8.90465779,4.86103923 L8.90465779,4.86103923 L8.9084009,4.89506803 C8.9084009,4.89506803 8.72412105,5.17855452 8.52347021,5.29412083 C8.41383812,5.3577212 8.24729435,5.42432706 8.11485865,5.40280362 C7.97472448,5.38021393 7.87493513,5.26842871 7.82348057,5.13957999 C7.72359358,5.19804201 7.60567856,5.2321688 7.47938252,5.2321688 C7.20798166,5.2321688 6.96406257,5.08412367 6.86758627,4.86123188 C6.74275116,4.99521918 6.56889872,5.07762799 6.36503228,5.07762799 C6.14830137,5.07762799 5.9497936,4.98057946 5.8253491,4.83146785 C5.70304888,4.94228357 5.53679684,5.01063434 5.35359015,5.01063434 C5.11366583,5.01063434 4.89966389,4.89371073 4.77833756,4.71725886 C4.65720633,4.89371073 4.44339909,5.01063434 4.20386497,5.01063434 C4.02075491,5.01063434 3.85411388,4.94228357 3.7317158,4.83146785 C3.60775837,4.98057946 3.40886118,5.07762799 3.19222794,5.07762799 C2.98826344,5.07762799 2.81441121,4.99521918 2.68947926,4.86123188 C2.59310022,5.08412367 2.34927836,5.2321688 2.07778044,5.2321688 C1.95138676,5.2321688 1.83395839,5.19804201 1.73416882,5.13957999 C1.68222742,5.26842871 1.58243787,5.38021393 1.44269332,5.40280362 C1.31025762,5.42432706 1.14371424,5.3577212 1.03378962,5.29412083 C0.833040918,5.17855452 0.648956357,4.89506803 0.648956357,4.89506803 L0.650351894,4.88250944 C0.607447464,4.83887806 0.560842014,4.79058066 0.558707489,4.79508699 C0.558707489,4.79508699 0.454325217,4.59176018 0.331163489,4.52427939 C0.208383239,4.4560126 0,4.47330009 0,4.47330009 C0,4.34853324 0.079387545,4.24289553 0.192951143,4.20569303 L0.440124516,3.74789281 C0.301347881,3.58057425 0.216318786,3.36491228 0.216318786,3.1290986 C0.216318786,2.98691848 0.246936806,2.85094662 0.302390776,2.72963044 C0.502877384,2.28670427 1.13192229,1.96438161 1.87955278,1.96438161 C2.04712575,1.96438161 2.20873328,1.98042818 2.36099843,2.01065193 C2.59683254,1.71952141 3.02572873,1.51897931 3.52812684,1.51897931 C3.79946555,1.51897931 4.05242086,1.57602485 4.26435231,1.67446515 L4.26435231,1.67446515 L4.26435231,1.67446515 Z M4.87855366,3.25872432 C4.90837262,3.31729858 4.92785741,3.3806654 4.93254051,3.44484821 C4.93254051,3.44484821 4.95134396,3.41953729 5.02403042,3.39422619 C5.09661684,3.36891527 5.15232016,3.37880681 5.15232016,3.37880681 C5.15232016,3.37880681 5.11360105,3.48043877 5.09661684,3.51593234 C5.07973394,3.55152291 5.05789773,3.66304641 5.01260736,3.75915055 C4.96863101,3.85593351 4.9072663,3.92876322 4.9072663,3.92876322 C4.89976616,3.92054862 4.8936475,3.93706592 4.8882065,3.9693146 L4.8882065,3.9693146 C4.94564121,3.95502053 4.98747794,3.94179616 4.97662587,3.93011045 C4.97662587,3.93011045 5.05860985,3.86958907 5.15085456,3.82842007 C5.2210083,3.79683579 5.35077833,3.77501896 5.38969023,3.7678989 C5.42823358,3.7605048 5.50596573,3.74599081 5.50596573,3.74599081 C5.50596573,3.74599081 5.50328361,3.76433886 5.48775727,3.80651198 C5.46945616,3.85772229 5.45161816,3.89058454 5.45161816,3.89058454 C5.58656351,3.89861706 5.71346907,3.96488964 5.80127654,4.05087915 C5.71346907,4.13613819 5.58684137,4.20085877 5.45161816,4.20962193 C5.45161816,4.20962193 5.46945616,4.24211906 5.48775727,4.29360322 C5.50291604,4.33513734 5.50596573,4.35375926 5.50596573,4.35375926 C5.50596573,4.35375926 5.4286031,4.33961021 5.38969023,4.33258142 C5.35077833,4.32482238 5.2210083,4.30327921 5.15085456,4.27142107 C5.05860985,4.23016079 4.97533207,4.17064355 4.97533207,4.17064355 C4.98713944,4.15752458 4.93641409,4.1430817 4.871202,4.12755306 C4.86902499,4.15308441 4.86682248,4.17973677 4.86452926,4.20667593 L4.90076045,4.21330436 C4.88146499,4.26148918 4.87746938,4.31413395 4.87746938,4.36959028 C4.87746938,4.61671992 5.09088643,4.81779761 5.35361455,4.81779761 C5.56449752,4.81779761 5.74409942,4.68788245 5.80578612,4.50842492 C5.81270315,4.51317529 5.85119844,4.34632195 5.87107779,4.34835791 C5.88774173,4.35010261 5.88598806,4.52170735 5.89212794,4.51860492 C5.92263002,4.74459913 6.13020011,4.8974918 6.3638869,4.8974918 C6.62622463,4.8974918 6.83895992,4.69748075 6.83895992,4.44986616 C6.83895992,4.43144535 6.83789187,4.41302455 6.83535901,4.39518543 L6.90726651,4.32430091 C6.90676257,4.30411748 6.90637681,4.28361597 6.90603176,4.26328271 L6.90603176,4.26328271 C6.86006143,4.25415049 6.82932428,4.24116427 6.83939442,4.25798943 C6.83939442,4.25798943 6.7472782,4.30382901 6.65009075,4.33015788 C6.57660542,4.35008794 6.44546837,4.3505084 6.40655255,4.351242 C6.36722188,4.35197451 6.2890791,4.35375926 6.2890791,4.35375926 C6.2890791,4.35375926 6.2951853,4.33603178 6.31785244,4.29606634 C6.3449696,4.24833866 6.36846429,4.21844334 6.36846429,4.21844334 C6.23856988,4.18802335 6.12720265,4.1026379 6.056926,4.00235713 C6.15835712,3.93060805 6.2940466,3.88550274 6.42704599,3.8995589 C6.42704599,3.8995589 6.41545476,3.86368435 6.4072764,3.80966276 C6.40043768,3.76487212 6.40076179,3.74599081 6.40076179,3.74599081 C6.40076179,3.74599081 6.47362699,3.77378821 6.5102654,3.78742478 C6.54680247,3.80074667 6.66945087,3.84406877 6.73186248,3.88697128 C6.80082034,3.93447354 6.86049954,3.99404503 6.87781534,4.01187451 C6.86642641,3.98718121 6.83762863,3.92038431 6.8200391,3.84101534 C6.79783867,3.74037174 6.79753725,3.62859372 6.78897306,3.59205496 C6.78040989,3.55465141 6.76368163,3.45054858 6.76368163,3.45054858 C6.76368163,3.45054858 6.77677595,3.45026426 6.79733711,3.45477001 L6.79733711,3.45477001 L6.67223291,3.24110893 C6.89089477,3.1011515 7.04096216,2.8579602 7.04096216,2.58090159 C7.04096216,2.54958449 7.03921035,2.51908347 7.03559471,2.48878667 C7.01481242,2.0495323 6.50216135,1.68658152 5.85281038,1.68658152 C5.53673909,1.68658152 5.25012325,1.77092944 5.03880121,1.90848291 C5.0407714,1.94613485 5.04215629,1.98446001 5.04292384,2.02334496 C5.04323399,2.04055895 5.04173482,2.05737494 5.04173482,2.07429045 C5.04225178,2.09389249 5.04589117,2.11498706 5.04619101,2.13498709 C5.05213601,2.48235128 5.10156031,2.7890188 5.17198551,2.97678059 L4.87855366,3.25872432 L4.87855366,3.25872432 Z M6.98514761,3.4331548 C7.02960004,3.34737274 7.09646403,3.27344894 7.16973431,3.22299274 C7.2442138,3.32741988 7.28653075,3.47119641 7.27169514,3.60881115 C7.27169514,3.60881115 7.29250595,3.58708253 7.35892013,3.57367751 C7.42523451,3.5603808 7.471634,3.5790828 7.471634,3.5790828 C7.471634,3.5790828 7.42115197,3.67129423 7.40073922,3.70329249 C7.3807256,3.73496668 7.34328733,3.83939383 7.28921955,3.925984 C7.23465496,4.01257417 7.17013238,4.07386836 7.17013238,4.07386836 C7.16683041,4.06792431 7.16179678,4.07064169 7.15539815,4.07997748 C7.17715398,4.07793014 7.18920272,4.07368635 7.18401825,4.06519691 C7.18401825,4.06519691 7.27449144,4.01862309 7.37178897,3.99271379 C7.44582142,3.97309819 7.57630932,3.97236392 7.61508371,3.97162967 C7.65447761,3.97047559 7.73295672,3.96869195 7.73295672,3.96869195 C7.73295672,3.96869195 7.72675082,3.986839 7.70421213,4.02638487 C7.67712207,4.07411255 7.65334111,4.10400787 7.65334111,4.10400787 C7.78341544,4.13442786 7.8942569,4.22128185 7.96446437,4.32198219 C7.86313464,4.39331169 7.72799415,4.43663379 7.59481797,4.42289253 C7.59481797,4.42289253 7.60670845,4.45887175 7.6148765,4.51320805 C7.62128743,4.55799866 7.62097444,4.57646041 7.62097444,4.57646041 C7.62097444,4.57646041 7.5477685,4.5490826 7.51168261,4.535446 C7.47507974,4.52170454 7.35296731,4.47880203 7.29020475,4.43589952 C7.20862378,4.37894085 7.13851992,4.30561833 7.13851992,4.30561833 C7.15214727,4.29446011 7.11161413,4.31268597 7.05960709,4.31797174 L7.05960709,4.31797174 C7.05255304,4.3369657 7.04544407,4.35588917 7.03836655,4.37426115 L7.06456315,4.43551728 C7.03269699,4.49436708 7.02002865,4.56039103 7.02002865,4.63116574 C7.02002865,4.86743672 7.22321336,5.05852851 7.47405132,5.05852851 C7.63182492,5.05852851 7.77039949,4.9830032 7.85177122,4.86840642 L7.94717538,4.74770156 L7.94646334,4.89574669 C7.94646334,5.04447048 8.00961197,5.17787588 8.15549619,5.20143526 C8.15549619,5.20143526 8.32301345,5.21171203 8.54490993,5.03836259 C8.58790362,5.00480433 8.62715764,4.97236152 8.66250866,4.94185992 C8.64384151,4.93764372 8.62935376,4.93741804 8.62567186,4.95031217 C8.58592017,4.95826834 8.5198597,4.96828765 8.46094759,4.97211819 C8.38106407,4.97761878 8.24722552,4.95581295 8.20718824,4.95031217 C8.16667435,4.94441871 8.08612418,4.93263157 8.08612418,4.93263157 C8.08612418,4.93263157 8.09603772,4.91740658 8.12720922,4.88479587 C8.16486337,4.8463897 8.20604495,4.81142119 8.20604495,4.81142119 C8.09174812,4.76672867 8.00442871,4.67940633 7.95867196,4.58658322 C8.06581946,4.54365833 8.20327975,4.52391523 8.32110418,4.53982778 C8.32110418,4.53982778 8.3171937,4.50898512 8.31967133,4.45879182 C8.32215893,4.41684958 8.32501468,4.39985655 8.32501468,4.39985655 C8.32501468,4.39985655 8.39069504,4.44631711 8.45494552,4.47715999 C8.51919502,4.50829755 8.64235663,4.57656434 8.69030644,4.63883924 C8.71742308,4.67412537 8.74856667,4.76817848 8.77063915,4.84377049 C8.77240894,4.84207947 8.77415969,4.84040198 8.77589137,4.83873827 C8.75306178,4.71612961 8.72706329,4.52351221 8.76513239,4.42480576 C8.82414002,4.27344028 8.95264,4.24711592 8.95264,4.24711592 L8.97418353,4.35172617 C8.98946027,4.33187733 9.00785924,4.31439734 9.02859138,4.29959818 L9.02859138,4.29959818 L8.72959616,3.7177672 C8.88989829,3.57416226 8.99227883,3.36379256 8.99227883,3.1290986 C8.99227883,3.01388908 8.96782099,2.90407341 8.92336144,2.80565665 C8.7578456,2.41952092 8.18498902,2.13373587 7.50036642,2.13373587 C7.36965287,2.13373587 7.24216515,2.14418874 7.12122496,2.16385643 C7.17503964,2.26585897 7.2070005,2.37527249 7.21317863,2.48848064 C7.21571469,2.51908347 7.21718131,2.54999252 7.21718131,2.58090159 C7.21718131,2.86122448 7.09482398,3.11369877 6.90114077,3.28925767 L6.98514761,3.4331548 L6.98514761,3.4331548 Z M6.94869255,3.52267948 C6.94612357,3.53125329 6.94379354,3.53989581 6.94171526,3.54859773 C6.94171526,3.54859773 6.93954346,3.5439186 6.93293728,3.53587592 L6.94869255,3.52267948 L6.94869255,3.52267948 Z M6.89503496,4.03475854 C6.89201344,4.02240186 6.88801942,4.01737721 6.88267005,4.02208732 C6.88267005,4.02208732 6.88213728,4.02102477 6.88116034,4.01899106 C6.8783515,4.02343637 6.88394542,4.02867357 6.89503496,4.03475854 L6.89503496,4.03475854 L6.89503496,4.03475854 Z M1.77702086,6.05462726 C1.80641374,6.0402843 1.66452071,5.94078916 1.59709384,5.81418636 C1.52022355,5.66985232 1.5142315,5.49722488 1.5142315,5.49722488 C2.35121048,5.24296947 3.51631205,5.08389738 4.81305123,5.0821977 C6.11027653,5.08389885 7.28471095,5.24296947 8.12178714,5.49722488 C8.12178714,5.49722488 8.0836477,5.6622807 8.00448162,5.81418636 C7.94363569,5.93093886 7.83152274,6.04128806 7.85890096,6.05462726 C7.10193451,5.81486934 6.0062496,5.66039641 4.80799562,5.65799687 C3.60964443,5.66039621 2.53408413,5.81486934 1.77702086,6.05462726 L1.77702086,6.05462726 Z M4.5228211,0.181173582 L4.29729645,0.181173582 L4.29729645,0.364863646 L4.5228211,0.364863646 L4.5228211,0.616493742 L4.5228211,0.893286829 L4.23871867,0.893286829 C4.23537479,0.910521468 4.21821632,0.923086575 4.21821632,0.941096499 C4.21821632,0.987376441 4.22956144,1.03185584 4.25043419,1.07194426 C4.25100162,1.07302684 4.25278508,1.07338321 4.25336325,1.07446075 L5.00901775,1.07446075 C5.00960473,1.0733933 5.01138527,1.07301843 5.01194292,1.07194426 C5.0328094,1.03185584 5.04416077,0.987376441 5.04416077,0.941096499 C5.04416077,0.923150791 5.02695614,0.910473728 5.02365922,0.893286829 L4.74834262,0.893286829 L4.74834262,0.619010058 L4.74834262,0.364863646 L4.97386787,0.364863646 L4.97386787,0.181173582 L4.74834262,0.181173582 L4.74834262,0 L4.52281837,0 L4.5228211,0.181173582 L4.5228211,0.181173582 Z" id="path-35" fill="#C7A200"></path>
                                </g>
                            </g>
                        </g>
                    </g>
                </g>
            </g>
        </g>
    </g>
</svg>